<?xml version="1.0" encoding="UTF-8" standalone="no"?>
<svg
   xmlns:dc="http://purl.org/dc/elements/1.1/"
   xmlns:cc="http://creativecommons.org/ns#"
   xmlns:rdf="http://www.w3.org/1999/02/22-rdf-syntax-ns#"
   xmlns:svg="http://www.w3.org/2000/svg"
   xmlns="http://www.w3.org/2000/svg"
   viewBox="0 0 1440 1440"
   height="1440"
   width="1440"
   xml:space="preserve"
   id="svg2"
   version="1.1"><metadata
     id="metadata8"><rdf:RDF><cc:Work
         rdf:about=""><dc:format>image/svg+xml</dc:format><dc:type
           rdf:resource="http://purl.org/dc/dcmitype/StillImage" /></cc:Work></rdf:RDF></metadata><defs
     id="defs6"><clipPath
       id="clipPath18"
       clipPathUnits="userSpaceOnUse"><path
         id="path16"
         d="M 0,1080 H 1080 V 0 H 0 Z" /></clipPath><linearGradient
       id="linearGradient50"
       spreadMethod="pad"
       gradientTransform="matrix(141.875,0,0,-141.875,539.58539,625.56403)"
       gradientUnits="userSpaceOnUse"
       y2="0"
       x2="1"
       y1="0"
       x1="0"><stop
         id="stop44"
         offset="0"
         style="stop-opacity:1;stop-color:#a44692" /><stop
         id="stop46"
         offset="0.5"
         style="stop-opacity:1;stop-color:#a44692" /><stop
         id="stop48"
         offset="1"
         style="stop-opacity:1;stop-color:#6f3363" /></linearGradient><clipPath
       id="clipPath60"
       clipPathUnits="userSpaceOnUse"><path
         id="path58"
         d="M 0,1080 H 1080 V 0 H 0 Z" /></clipPath><linearGradient
       id="linearGradient84"
       spreadMethod="pad"
       gradientTransform="matrix(141.875,0,0,-141.875,539.58539,455.31403)"
       gradientUnits="userSpaceOnUse"
       y2="0"
       x2="1"
       y1="0"
       x1="0"><stop
         id="stop78"
         offset="0"
         style="stop-opacity:1;stop-color:#a44692" /><stop
         id="stop80"
         offset="0.5"
         style="stop-opacity:1;stop-color:#a44692" /><stop
         id="stop82"
         offset="1"
         style="stop-opacity:1;stop-color:#6f3363" /></linearGradient><linearGradient
       id="linearGradient104"
       spreadMethod="pad"
       gradientTransform="matrix(170.25,0,0,-170.25,653.08539,540.43903)"
       gradientUnits="userSpaceOnUse"
       y2="0"
       x2="1"
       y1="0"
       x1="0"><stop
         id="stop100"
         offset="0"
         style="stop-opacity:1;stop-color:#403d7c" /><stop
         id="stop102"
         offset="1"
         style="stop-opacity:1;stop-color:#4a4895" /></linearGradient><clipPath
       id="clipPath114"
       clipPathUnits="userSpaceOnUse"><path
         id="path112"
         d="M 0,1080 H 1080 V 0 H 0 Z" /></clipPath><linearGradient
       id="linearGradient148"
       spreadMethod="pad"
       gradientTransform="matrix(78.914024,0,0,-78.914024,397.71036,469.604)"
       gradientUnits="userSpaceOnUse"
       y2="0"
       x2="1"
       y1="0"
       x1="0"><stop
         id="stop140"
         offset="0"
         style="stop-opacity:1;stop-color:#bc5f82" /><stop
         id="stop142"
         offset="0.172635"
         style="stop-opacity:1;stop-color:#bc5f82" /><stop
         id="stop144"
         offset="0.672246"
         style="stop-opacity:1;stop-color:#ee73a1" /><stop
         id="stop146"
         offset="1"
         style="stop-opacity:1;stop-color:#ee73a1" /></linearGradient><clipPath
       id="clipPath158"
       clipPathUnits="userSpaceOnUse"><path
         id="path156"
         d="M 0,1080 H 1080 V 0 H 0 Z" /></clipPath><linearGradient
       id="linearGradient186"
       spreadMethod="pad"
       gradientTransform="matrix(141.875,0,0,-141.875,255.83537,625.56403)"
       gradientUnits="userSpaceOnUse"
       y2="0"
       x2="1"
       y1="0"
       x1="0"><stop
         id="stop180"
         offset="0"
         style="stop-opacity:1;stop-color:#ee73a1" /><stop
         id="stop182"
         offset="0.583408"
         style="stop-opacity:1;stop-color:#ee73a1" /><stop
         id="stop184"
         offset="1"
         style="stop-opacity:1;stop-color:#bc5f82" /></linearGradient><clipPath
       id="clipPath196"
       clipPathUnits="userSpaceOnUse"><path
         id="path194"
         d="M 0,1080 H 1080 V 0 H 0 Z" /></clipPath></defs><g
     transform="matrix(1.3333333,0,0,-1.3333333,0,1440)"
     id="g10"><g
       id="g12"><g
         clip-path="url(#clipPath18)"
         id="g14"><g
           transform="translate(476.6244,634.8806)"
           id="g20"><path
             id="path22"
             style="fill:#ee73a1;fill-opacity:1;fill-rule:nonzero;stroke:none"
             d="m 0,0 c -3.752,-2.507 -7.346,-5.234 -10.767,-8.15 -9.773,-8.355 -18.112,-18.349 -24.591,-29.542 -5.076,-8.78 -9.017,-18.301 -11.603,-28.375 -2.333,-9.064 -3.578,-18.569 -3.578,-28.375 0,9.664 -0.804,19.154 -2.365,28.375 -1.623,9.758 -4.098,19.248 -7.33,28.375 -4.697,13.289 -11.003,25.838 -18.68,37.377 0.567,0.851 1.135,1.686 1.718,2.522 -0.015,0.016 0.016,0.031 0.016,0.031 0.568,0.836 1.151,1.671 1.75,2.491 0.378,0.552 0.772,1.088 1.182,1.624 0.032,0.047 0.063,0.094 0.095,0.142 0.173,0.236 0.346,0.473 0.536,0.709 0.047,0.079 0.11,0.158 0.157,0.221 0.773,1.04 1.561,2.065 2.365,3.089 0.079,0.111 0.173,0.221 0.236,0.316 0.284,0.347 0.552,0.693 0.82,1.024 0.126,0.158 0.252,0.316 0.378,0.473 0.568,0.71 1.151,1.403 1.719,2.097 0.205,0.252 0.409,0.489 0.614,0.725 0.458,0.536 0.899,1.072 1.372,1.608 0.504,0.599 1.025,1.198 1.561,1.781 0.141,0.174 0.299,0.347 0.457,0.52 0.031,0.048 0.063,0.079 0.11,0.111 0.158,0.189 0.331,0.378 0.504,0.567 0.3,0.331 0.615,0.678 0.915,1.009 0.504,0.552 1.024,1.104 1.529,1.655 0.063,0.064 0.126,0.127 0.189,0.19 1.072,1.135 2.16,2.254 3.263,3.357 1.104,1.104 2.223,2.191 3.358,3.263 0.063,0.064 0.126,0.127 0.189,0.19 0.552,0.504 1.104,1.024 1.655,1.529 0.331,0.299 0.678,0.615 1.009,0.914 0.189,0.173 0.378,0.347 0.568,0.504 0.031,0.048 0.063,0.079 0.11,0.111 0.489,0.441 0.977,0.883 1.482,1.308 0.425,0.379 0.851,0.741 1.277,1.104 1.544,1.324 3.121,2.632 4.713,3.893 0.426,0.347 0.867,0.694 1.293,1.025 0.079,0.063 0.173,0.142 0.252,0.189 0.693,0.552 1.387,1.088 2.096,1.608 0.079,0.063 0.158,0.126 0.237,0.173 0.804,0.615 1.608,1.214 2.428,1.782 0.457,0.347 0.93,0.678 1.387,1.009 0.725,0.536 1.466,1.04 2.223,1.545 0.551,0.378 1.103,0.756 1.655,1.119 l 0.016,0.016 18.774,-28.171 z" /></g><g
           transform="translate(255.8354,426.939)"
           id="g24"><path
             id="path26"
             style="fill:#ee73a1;fill-opacity:1;fill-rule:nonzero;stroke:none"
             d="m 0,0 v -56.75 c -1.703,0 -3.405,0.032 -5.092,0.095 -1.024,0.015 -2.049,0.047 -3.074,0.11 -0.851,0.031 -1.702,0.079 -2.538,0.142 -0.205,0 -0.394,0.016 -0.599,0.031 -0.961,0.048 -1.923,0.126 -2.869,0.205 -1.087,0.095 -2.159,0.189 -3.231,0.3 -2.759,0.284 -5.486,0.615 -8.213,1.024 -0.41,0.063 -0.804,0.127 -1.214,0.205 -1.056,0.158 -2.128,0.331 -3.184,0.536 -0.127,0.016 -0.253,0.032 -0.379,0.063 -1.119,0.19 -2.222,0.41 -3.326,0.631 -0.426,0.079 -0.851,0.173 -1.277,0.268 -1.009,0.205 -1.986,0.41 -2.979,0.646 -0.3,0.063 -0.599,0.126 -0.899,0.205 -0.709,0.158 -1.418,0.331 -2.128,0.52 -0.694,0.158 -1.387,0.347 -2.081,0.521 -1.198,0.315 -2.38,0.63 -3.547,0.961 -1.34,0.379 -2.664,0.773 -3.988,1.198 -1.088,0.331 -2.159,0.678 -3.231,1.041 -0.931,0.315 -1.861,0.63 -2.791,0.961 -0.047,0 -0.078,0.016 -0.11,0.032 -0.032,0 -0.047,0.016 -0.063,0.031 -1.245,0.426 -2.475,0.883 -3.705,1.356 -0.11,0.032 -0.205,0.063 -0.299,0.11 -1.214,0.458 -2.412,0.93 -3.594,1.435 -0.126,0.031 -0.253,0.079 -0.363,0.142 -0.914,0.362 -1.797,0.741 -2.695,1.135 -0.584,0.252 -1.167,0.504 -1.75,0.772 -0.82,0.347 -1.64,0.725 -2.444,1.104 -0.299,0.126 -0.599,0.268 -0.898,0.425 -0.899,0.41 -1.781,0.836 -2.664,1.293 -0.473,0.221 -0.946,0.441 -1.403,0.694 -0.678,0.331 -1.34,0.677 -2.002,1.04 -0.615,0.299 -1.246,0.631 -1.86,0.977 -0.552,0.284 -1.104,0.584 -1.656,0.899 -0.599,0.315 -1.213,0.662 -1.812,1.009 -0.663,0.378 -1.325,0.756 -1.971,1.135 -0.615,0.347 -1.214,0.709 -1.813,1.087 -1.024,0.599 -2.049,1.23 -3.042,1.876 -0.946,0.584 -1.876,1.183 -2.806,1.813 -0.189,0.111 -0.379,0.237 -0.568,0.363 -0.788,0.52 -1.576,1.056 -2.348,1.592 -0.426,0.284 -0.868,0.583 -1.277,0.883 -0.726,0.504 -1.435,1.024 -2.144,1.545 -0.946,0.662 -1.876,1.355 -2.79,2.065 -0.568,0.425 -1.136,0.851 -1.703,1.292 -0.883,0.694 -1.766,1.387 -2.633,2.097 -0.094,0.063 -0.173,0.142 -0.252,0.205 -0.961,0.788 -1.923,1.576 -2.869,2.38 -0.11,0.095 -0.221,0.174 -0.315,0.268 -1.009,0.851 -2.002,1.718 -2.979,2.601 -0.016,0.016 -0.032,0.016 -0.032,0.032 -0.016,0 -0.016,0.015 -0.016,0.015 -1.119,0.994 -2.238,2.018 -3.326,3.043 -0.063,0.063 -0.126,0.126 -0.189,0.189 -1.135,1.072 -2.254,2.16 -3.358,3.263 -1.103,1.104 -2.191,2.223 -3.263,3.358 l -0.189,0.189 c -1.025,1.088 -2.049,2.207 -3.043,3.326 0,0 -0.015,0 -0.015,0.016 -0.016,0 -0.016,0.016 -0.032,0.032 -0.883,0.977 -1.75,1.97 -2.601,2.979 -0.094,0.095 -0.173,0.205 -0.268,0.315 -0.804,0.946 -1.592,1.908 -2.38,2.869 -0.063,0.079 -0.142,0.158 -0.205,0.252 -0.71,0.867 -1.403,1.75 -2.097,2.633 -0.441,0.567 -0.867,1.135 -1.292,1.703 -0.71,0.914 -1.403,1.844 -2.065,2.79 -0.521,0.709 -1.041,1.418 -1.545,2.144 -0.3,0.41 -0.599,0.851 -0.883,1.277 -0.536,0.772 -1.072,1.56 -1.592,2.348 -0.126,0.189 -0.252,0.379 -0.363,0.568 -0.63,0.93 -1.229,1.86 -1.813,2.806 -0.646,0.993 -1.277,2.002 -1.876,3.026 -0.378,0.599 -0.741,1.214 -1.087,1.829 -0.379,0.646 -0.757,1.308 -1.135,1.971 -0.347,0.599 -0.694,1.213 -1.009,1.812 -0.315,0.552 -0.615,1.104 -0.899,1.656 -0.347,0.614 -0.678,1.245 -0.977,1.86 -0.363,0.646 -0.709,1.308 -1.041,1.986 -0.236,0.473 -0.472,0.93 -0.693,1.419 -0.457,0.883 -0.883,1.765 -1.293,2.648 -0.142,0.3 -0.284,0.599 -0.425,0.914 -0.379,0.804 -0.757,1.624 -1.104,2.444 -0.268,0.583 -0.52,1.166 -0.772,1.75 -0.394,0.898 -0.773,1.781 -1.135,2.695 -0.063,0.111 -0.111,0.237 -0.142,0.363 -0.505,1.182 -0.977,2.38 -1.435,3.578 -0.047,0.095 -0.078,0.205 -0.11,0.315 -0.473,1.23 -0.93,2.46 -1.356,3.705 -0.015,0.016 -0.031,0.032 -0.031,0.063 -0.016,0.032 -0.032,0.063 -0.032,0.11 -0.347,0.946 -0.662,1.892 -0.977,2.838 -0.363,1.056 -0.694,2.112 -1.025,3.184 -0.425,1.324 -0.819,2.664 -1.198,4.02 -0.394,1.371 -0.772,2.743 -1.135,4.146 -0.331,1.324 -0.662,2.664 -0.961,4.004 -0.268,1.119 -0.505,2.238 -0.741,3.373 -0.158,0.741 -0.316,1.498 -0.457,2.255 -0.111,0.488 -0.205,1.008 -0.284,1.513 -0.174,0.898 -0.331,1.797 -0.489,2.711 -0.016,0.079 -0.031,0.142 -0.031,0.221 -0.016,0.063 -0.032,0.142 -0.032,0.205 -0.189,1.056 -0.347,2.128 -0.504,3.2 -0.536,3.578 -0.946,7.204 -1.246,10.861 -0.063,0.725 -0.126,1.451 -0.173,2.192 -0.047,0.756 -0.095,1.513 -0.142,2.269 -0.032,0.615 -0.063,1.23 -0.079,1.845 -0.063,1.135 -0.11,2.27 -0.126,3.405 -0.047,1.466 -0.063,2.932 -0.063,4.398 h 56.75 c 0,-9.805 1.245,-19.311 3.578,-28.375 2.586,-10.073 6.527,-19.595 11.603,-28.375 C -88.341,39.52 -73.98,25.159 -56.75,15.181 -40.056,5.533 -20.666,0 0,0" /></g><g
           transform="translate(539.5854,710.689)"
           id="g28"><path
             id="path30"
             style="fill:#a44692;fill-opacity:1;fill-rule:nonzero;stroke:none"
             d="m 0,0 v -56.75 c -20.666,0 -40.056,-5.533 -56.75,-15.181 -2.112,-1.229 -4.193,-2.522 -6.211,-3.877 l -12.706,19.058 -18.774,28.17 c 1.071,0.725 2.175,1.435 3.278,2.144 0.946,0.599 1.908,1.198 2.885,1.781 1.293,0.804 2.601,1.577 3.925,2.318 2.176,1.245 4.367,2.443 6.59,3.562 2.065,1.072 4.146,2.097 6.258,3.058 0.709,0.347 1.434,0.662 2.16,0.994 1.292,0.583 2.601,1.15 3.925,1.686 0.646,0.284 1.308,0.552 1.955,0.804 0.567,0.237 1.15,0.457 1.718,0.678 0.82,0.331 1.655,0.646 2.49,0.946 0.804,0.299 1.608,0.599 2.412,0.883 0.032,0.015 0.063,0.031 0.095,0.031 0.032,0.016 0.063,0.032 0.11,0.032 0.93,0.331 1.86,0.646 2.791,0.961 1.072,0.363 2.143,0.71 3.231,1.041 1.324,0.425 2.648,0.82 3.988,1.198 1.167,0.331 2.349,0.646 3.547,0.961 0.694,0.174 1.387,0.363 2.081,0.521 0.709,0.189 1.419,0.362 2.128,0.52 0.3,0.079 0.599,0.142 0.899,0.205 0.993,0.22 1.986,0.441 2.979,0.646 0.426,0.095 0.851,0.189 1.277,0.268 1.103,0.221 2.207,0.441 3.326,0.631 0.126,0.031 0.252,0.047 0.379,0.063 1.056,0.205 2.128,0.378 3.184,0.536 0.41,0.078 0.804,0.142 1.214,0.205 2.727,0.409 5.454,0.74 8.213,1.024 1.072,0.111 2.144,0.205 3.231,0.3 0.946,0.079 1.908,0.157 2.869,0.205 0.205,0.015 0.394,0.031 0.599,0.031 0.836,0.063 1.687,0.111 2.538,0.142 1.025,0.063 2.05,0.095 3.074,0.11 C -3.405,-0.031 -1.703,0 0,0" /></g></g></g><g
       id="g32"><g
         id="g34"><g
           id="g40"><g
             id="g42"><path
               id="path52"
               style="fill:url(#linearGradient50);stroke:none"
               d="m 539.585,653.939 c 20.667,0 40.056,-5.533 56.751,-15.181 v 0 c 6.037,-3.499 11.712,-7.519 16.977,-12.028 v 0 c 9.773,-8.354 18.113,-18.349 24.592,-29.541 v 0 c 5.076,-8.781 9.017,-18.302 11.602,-28.375 v 0 c 2.333,-9.064 3.578,-18.57 3.578,-28.375 v 0 c 0,6.037 0.316,12.012 0.931,17.892 v 0 c 0.079,0.725 0.157,1.435 0.236,2.144 v 0 c 0.016,0.189 0.047,0.378 0.063,0.567 v 0 c 0.032,0.268 0.063,0.536 0.11,0.805 v 0 c 0.284,2.349 0.631,4.665 1.025,6.967 v 0 c 0.236,1.466 0.504,2.932 0.788,4.382 v 0 c 0.016,0.095 0.032,0.189 0.064,0.269 v 0 c 0.126,0.677 0.252,1.339 0.394,2.017 v 0 c 0.047,0.205 0.078,0.395 0.126,0.599 v 0 h 0.015 v 0.016 0.032 c 0,0.031 0,0.046 0.016,0.063 v 0 c 0.047,0.268 0.11,0.535 0.173,0.803 v 0 c 0.19,0.852 0.394,1.703 0.584,2.538 v 0 c 1.402,6.022 3.137,11.918 5.17,17.656 v 0 c 4.698,13.289 11.003,25.837 18.68,37.376 v 0 c -0.567,0.851 -1.135,1.687 -1.718,2.522 v 0 c 0.015,0.016 -0.016,0.032 -0.016,0.032 v 0 c -0.567,0.835 -1.15,1.671 -1.75,2.49 v 0 c -1.198,1.672 -2.412,3.311 -3.656,4.919 v 0 c -0.08,0.11 -0.174,0.22 -0.252,0.331 v 0 c -0.363,0.457 -0.726,0.914 -1.089,1.372 v 0 c -0.394,0.504 -0.804,1.009 -1.198,1.497 v 0 c -0.079,0.11 -0.157,0.205 -0.236,0.3 v 0 c -0.048,0.047 -0.079,0.078 -0.11,0.126 v 0 c -0.962,1.182 -1.939,2.333 -2.932,3.484 v 0 c -0.646,0.756 -1.309,1.513 -1.971,2.253 v 0 c -0.015,0.017 -0.032,0.032 -0.047,0.048 v 0 c 0,0.015 -0.016,0.015 -0.016,0.015 v 0 l -0.095,0.096 c -0.173,0.189 -0.331,0.378 -0.52,0.567 v 0 c -0.252,0.3 -0.52,0.583 -0.788,0.883 v 0 c -0.536,0.599 -1.088,1.198 -1.639,1.781 v 0 c -0.064,0.063 -0.127,0.126 -0.19,0.189 v 0 c -1.072,1.135 -2.159,2.254 -3.263,3.358 v 0 c -1.104,1.103 -2.223,2.191 -3.357,3.263 v 0 c -0.063,0.063 -0.126,0.126 -0.189,0.189 v 0 c -0.584,0.552 -1.183,1.103 -1.782,1.64 v 0 c -0.299,0.267 -0.583,0.535 -0.883,0.787 v 0 c -0.189,0.19 -0.378,0.348 -0.567,0.521 v 0 c -0.032,0.031 -0.063,0.064 -0.095,0.095 v 0 c 0,0 0,0.015 -0.016,0.015 v 0 c -0.015,0.016 -0.032,0.032 -0.047,0.032 v 0 c -0.157,0.142 -0.315,0.283 -0.473,0.41 v 0 c -0.347,0.315 -0.678,0.615 -1.024,0.914 v 0 c -0.395,0.362 -0.804,0.71 -1.215,1.056 v 0 c -0.646,0.552 -1.292,1.104 -1.938,1.639 v 0 c -0.063,0.064 -0.142,0.111 -0.205,0.174 v 0 c -0.063,0.063 -0.142,0.111 -0.206,0.157 v 0 c -0.378,0.316 -0.74,0.631 -1.134,0.931 v 0 c -1.671,1.372 -3.374,2.695 -5.108,3.988 v 0 c -0.851,0.662 -1.718,1.292 -2.585,1.907 v 0 c -0.741,0.536 -1.482,1.057 -2.238,1.593 v 0 c -0.253,0.189 -0.536,0.378 -0.805,0.552 v 0 c -0.74,0.52 -1.481,1.024 -2.238,1.513 v 0 c -1.97,1.323 -3.973,2.601 -6.006,3.83 v 0 c -1.135,0.694 -2.269,1.372 -3.42,2.034 v 0 c -0.08,0.047 -0.174,0.094 -0.253,0.141 v 0 c -1.151,0.663 -2.302,1.309 -3.452,1.924 v 0 c -0.914,0.505 -1.845,0.993 -2.759,1.45 v 0 c -1.308,0.71 -2.617,1.372 -3.957,2.002 v 0 c -0.536,0.268 -1.072,0.536 -1.623,0.788 v 0 c -0.678,0.315 -1.356,0.631 -2.034,0.946 v 0 c -0.395,0.189 -0.804,0.378 -1.229,0.552 v 0 c -1.088,0.489 -2.176,0.977 -3.279,1.435 v 0 c -1.135,0.472 -2.27,0.945 -3.405,1.403 v 0 c -1.072,0.425 -2.144,0.835 -3.247,1.244 v 0 c -0.915,0.348 -1.845,0.679 -2.775,1.009 v 0 c -0.032,0.017 -0.063,0.032 -0.094,0.032 v 0 c -0.032,0.016 -0.064,0.031 -0.111,0.031 v 0 c -0.93,0.332 -1.86,0.647 -2.79,0.962 v 0 c -1.072,0.363 -2.144,0.71 -3.232,1.041 v 0 c -1.324,0.425 -2.648,0.82 -3.988,1.198 v 0 c -1.166,0.331 -2.349,0.646 -3.547,0.962 v 0 c -0.693,0.173 -1.371,0.346 -2.065,0.52 v 0 c -0.71,0.189 -1.435,0.347 -2.144,0.52 v 0 c -0.3,0.078 -0.599,0.142 -0.898,0.204 v 0 c -0.994,0.221 -1.987,0.442 -2.98,0.647 v 0 c -0.426,0.095 -0.851,0.19 -1.276,0.268 v 0 c -1.104,0.22 -2.207,0.442 -3.327,0.631 v 0 c -0.126,0.031 -0.252,0.047 -0.378,0.063 v 0 c -1.057,0.205 -2.128,0.378 -3.184,0.535 v 0 c -0.411,0.079 -0.805,0.143 -1.214,0.205 v 0 c -2.727,0.41 -5.454,0.741 -8.214,1.026 v 0 c -1.071,0.109 -2.143,0.204 -3.231,0.298 v 0 c -0.946,0.08 -1.908,0.159 -2.869,0.206 v 0 c -0.205,0.016 -0.394,0.031 -0.599,0.031 v 0 c -0.835,0.063 -1.687,0.111 -2.538,0.142 v 0 c -1.024,0.063 -2.05,0.095 -3.074,0.11 v 0 c -1.687,0.063 -3.389,0.095 -5.092,0.095 v 0 z" /></g></g></g></g><g
       id="g54"><g
         clip-path="url(#clipPath60)"
         id="g56"><g
           transform="translate(539.5854,426.939)"
           id="g62"><path
             id="path64"
             style="fill:#a44692;fill-opacity:1;fill-rule:nonzero;stroke:none"
             d="m 0,0 v -56.75 c -1.703,0 -3.405,0.032 -5.092,0.095 -1.024,0.015 -2.049,0.047 -3.074,0.11 -0.851,0.031 -1.702,0.079 -2.538,0.142 -0.205,0 -0.394,0.016 -0.599,0.031 -0.961,0.048 -1.923,0.126 -2.869,0.205 -1.087,0.095 -2.159,0.189 -3.231,0.3 -2.759,0.284 -5.486,0.615 -8.213,1.024 -0.41,0.063 -0.804,0.127 -1.214,0.205 -1.056,0.158 -2.128,0.331 -3.184,0.536 -0.127,0.016 -0.253,0.032 -0.379,0.063 -1.119,0.19 -2.223,0.41 -3.326,0.631 -0.426,0.079 -0.851,0.173 -1.277,0.268 -1.009,0.205 -1.986,0.41 -2.979,0.646 -0.3,0.063 -0.599,0.126 -0.899,0.205 -0.709,0.158 -1.419,0.331 -2.128,0.52 -0.694,0.158 -1.387,0.347 -2.081,0.521 -1.198,0.315 -2.38,0.63 -3.547,0.961 -1.34,0.379 -2.664,0.773 -3.988,1.198 -1.088,0.331 -2.159,0.678 -3.231,1.041 -0.931,0.315 -1.861,0.63 -2.791,0.961 -0.047,0 -0.078,0.016 -0.11,0.032 -0.032,0 -0.063,0.016 -0.095,0.031 -0.804,0.284 -1.608,0.584 -2.412,0.883 -0.835,0.3 -1.67,0.615 -2.49,0.946 -0.568,0.221 -1.151,0.441 -1.718,0.678 -0.647,0.252 -1.309,0.52 -1.955,0.804 -1.324,0.536 -2.633,1.103 -3.925,1.687 -0.726,0.331 -1.451,0.646 -2.16,0.993 -2.112,0.961 -4.193,1.986 -6.258,3.058 -2.223,1.119 -4.414,2.317 -6.59,3.562 -3.436,1.955 -6.81,4.036 -10.088,6.243 L -75.667,0 -62.961,19.059 c 2.018,-1.356 4.099,-2.649 6.211,-3.878 C -40.056,5.533 -20.666,0 0,0" /></g></g></g><g
       id="g66"><g
         id="g68"><g
           id="g74"><g
             id="g76"><path
               id="path86"
               style="fill:url(#linearGradient84);stroke:none"
               d="m 649.507,512.064 c -2.585,-10.073 -6.526,-19.595 -11.602,-28.375 v 0 c -6.479,-11.193 -14.819,-21.187 -24.592,-29.542 v 0 c -5.265,-4.508 -10.94,-8.527 -16.977,-12.027 v 0 c -16.695,-9.647 -36.084,-15.181 -56.751,-15.181 v 0 -56.75 c 1.703,0 3.405,0.031 5.092,0.094 v 0 c 1.024,0.017 2.05,0.048 3.074,0.111 v 0 c 0.851,0.032 1.703,0.078 2.538,0.142 v 0 c 0.205,0 0.394,0.016 0.599,0.031 v 0 c 0.961,0.048 1.923,0.127 2.869,0.205 v 0 c 1.088,0.095 2.16,0.189 3.231,0.3 v 0 c 2.76,0.283 5.487,0.614 8.214,1.025 v 0 c 0.409,0.063 0.803,0.126 1.214,0.204 v 0 c 1.056,0.158 2.127,0.331 3.184,0.537 v 0 c 0.126,0.015 0.252,0.031 0.378,0.063 v 0 c 1.12,0.189 2.223,0.409 3.327,0.63 v 0 c 0.425,0.079 0.85,0.173 1.276,0.268 v 0 c 1.009,0.205 1.986,0.41 2.98,0.646 v 0 c 0.299,0.063 0.598,0.126 0.898,0.205 v 0 c 0.709,0.174 1.434,0.331 2.144,0.52 v 0 c 0.694,0.174 1.372,0.347 2.065,0.521 v 0 c 1.198,0.315 2.381,0.631 3.547,0.962 v 0 c 1.34,0.378 2.664,0.772 3.988,1.198 v 0 c 1.088,0.33 2.16,0.677 3.232,1.04 v 0 c 0.93,0.315 1.86,0.63 2.79,0.961 v 0 c 0.047,0 0.079,0.016 0.111,0.032 v 0 c 0.031,0 0.062,0.016 0.094,0.031 v 0 c 0.93,0.331 1.86,0.663 2.775,1.009 v 0 c 1.103,0.411 2.175,0.82 3.247,1.246 v 0 c 1.135,0.457 2.27,0.929 3.405,1.403 v 0 c 1.103,0.457 2.191,0.946 3.279,1.434 v 0 c 0.425,0.173 0.834,0.363 1.229,0.552 v 0 l 2.034,0.946 c 0.551,0.252 1.087,0.52 1.623,0.787 v 0 c 1.34,0.631 2.649,1.294 3.957,2.003 v 0 c 0.914,0.457 1.845,0.946 2.759,1.45 v 0 c 1.15,0.615 2.301,1.262 3.452,1.923 v 0 c 0.079,0.048 0.173,0.095 0.253,0.142 v 0 c 1.151,0.662 2.285,1.34 3.42,2.034 v 0 c 2.033,1.23 4.036,2.506 6.006,3.831 v 0 c 0.757,0.488 1.498,0.992 2.238,1.513 v 0 c 0.269,0.173 0.552,0.362 0.805,0.551 v 0 c 0.756,0.537 1.497,1.057 2.238,1.592 v 0 c 0.867,0.615 1.734,1.246 2.585,1.909 v 0 c 1.734,1.292 3.437,2.616 5.108,3.987 v 0 c 0.394,0.3 0.756,0.615 1.134,0.93 v 0 c 0.064,0.048 0.143,0.095 0.206,0.158 v 0 c 0.063,0.063 0.142,0.11 0.205,0.173 v 0 c 0.646,0.537 1.292,1.088 1.938,1.64 v 0 c 0.411,0.347 0.82,0.693 1.215,1.056 v 0 c 0.346,0.299 0.677,0.599 1.024,0.914 v 0 c 0.158,0.126 0.316,0.268 0.473,0.411 v 0 c 0.015,0 0.032,0.015 0.047,0.031 v 0 c 0.016,0 0.016,0.015 0.016,0.015 v 0 l 0.095,0.095 c 0.189,0.174 0.378,0.331 0.567,0.52 v 0 c 0.3,0.252 0.584,0.52 0.883,0.788 v 0 c 0.599,0.536 1.182,1.089 1.782,1.64 v 0 c 0.063,0.063 0.126,0.126 0.189,0.189 v 0 c 1.134,1.072 2.253,2.159 3.357,3.263 v 0 c 1.104,1.104 2.191,2.223 3.263,3.358 v 0 l 0.19,0.189 c 0.551,0.599 1.103,1.182 1.639,1.782 v 0 c 0.268,0.298 0.536,0.583 0.788,0.883 v 0 c 0.189,0.189 0.347,0.378 0.52,0.567 v 0 c 0.032,0.031 0.063,0.063 0.095,0.094 v 0 c 0,0 0.016,0 0.016,0.016 v 0 l 0.047,0.047 c 0.662,0.741 1.325,1.498 1.971,2.255 v 0 c 0.993,1.151 1.97,2.301 2.932,3.483 v 0 c 0.031,0.047 0.062,0.079 0.11,0.126 v 0 c 0.079,0.095 0.157,0.189 0.236,0.3 v 0 c 0.394,0.489 0.804,0.993 1.198,1.498 v 0 c 0.363,0.457 0.726,0.914 1.089,1.371 v 0 c 0.078,0.11 0.172,0.221 0.252,0.331 v 0 c 1.244,1.608 2.458,3.248 3.656,4.918 v 0 c 0.6,0.82 1.183,1.655 1.75,2.491 v 0 c 0,0 0.031,0.016 0.016,0.032 v 0 c 0.583,0.835 1.151,1.67 1.718,2.522 v 0 c -7.677,11.539 -13.982,24.087 -18.68,37.376 v 0 c -2.033,5.738 -3.768,11.634 -5.17,17.656 v 0 c -0.127,0.489 -0.237,0.977 -0.347,1.481 v 0 c -0.095,0.441 -0.205,0.883 -0.3,1.324 v 0 c -0.015,0.079 -0.031,0.158 -0.047,0.253 v 0 c -0.032,0.11 -0.063,0.221 -0.079,0.347 v 0 c 0,0.015 -0.015,0.031 -0.015,0.047 v 0 c -0.048,0.205 -0.079,0.394 -0.126,0.599 v 0 c -0.142,0.678 -0.268,1.34 -0.394,2.018 v 0 c -0.032,0.079 -0.048,0.173 -0.064,0.268 v 0 c -0.284,1.45 -0.552,2.916 -0.788,4.382 v 0 c -0.426,2.523 -0.804,5.044 -1.103,7.598 v 0 c -0.016,0.047 -0.016,0.11 -0.032,0.174 v 0 c -0.047,0.331 -0.079,0.677 -0.11,1.008 v 0 c -0.063,0.568 -0.126,1.135 -0.189,1.703 v 0 c -0.615,5.88 -0.931,11.854 -0.931,17.892 v 0 c 0,-9.805 -1.245,-19.311 -3.578,-28.375" /></g></g></g></g><g
       id="g88"><g
         id="g90"><g
           id="g96"><g
             id="g98"><path
               id="path106"
               style="fill:url(#linearGradient104);stroke:none"
               d="m 818.244,710.594 c -1.025,-0.015 -2.049,-0.047 -3.074,-0.11 v 0 c -0.852,-0.031 -1.703,-0.079 -2.538,-0.142 v 0 c -0.205,0 -0.395,-0.015 -0.599,-0.031 v 0 c -0.962,-0.047 -1.924,-0.126 -2.869,-0.206 v 0 c -1.088,-0.094 -2.16,-0.189 -3.232,-0.298 v 0 c -2.759,-0.285 -5.486,-0.616 -8.213,-1.026 v 0 c -0.41,-0.062 -0.804,-0.126 -1.214,-0.205 v 0 c -1.056,-0.157 -2.128,-0.33 -3.184,-0.535 v 0 c -0.127,-0.016 -0.252,-0.032 -0.379,-0.063 v 0 c -1.118,-0.189 -2.222,-0.411 -3.326,-0.631 v 0 c -0.425,-0.078 -0.851,-0.173 -1.276,-0.268 v 0 c -0.994,-0.205 -1.987,-0.426 -2.98,-0.647 v 0 c -0.299,-0.062 -0.599,-0.126 -0.898,-0.204 v 0 c -0.71,-0.158 -1.419,-0.331 -2.129,-0.52 v 0 c -0.693,-0.158 -1.387,-0.347 -2.081,-0.52 v 0 c -1.198,-0.316 -2.38,-0.631 -3.547,-0.962 v 0 c -1.339,-0.378 -2.664,-0.773 -3.988,-1.198 v 0 c -1.088,-0.331 -2.16,-0.678 -3.23,-1.041 v 0 c -0.931,-0.315 -1.862,-0.63 -2.791,-0.962 v 0 c -0.047,0 -0.079,-0.015 -0.11,-0.031 v 0 c -0.033,0 -0.064,-0.015 -0.096,-0.032 v 0 c -0.929,-0.33 -1.859,-0.661 -2.773,-1.009 v 0 c -1.104,-0.409 -2.176,-0.819 -3.248,-1.244 v 0 c -1.135,-0.458 -2.27,-0.931 -3.405,-1.403 v 0 c -1.104,-0.458 -2.191,-0.946 -3.279,-1.435 v 0 c -0.426,-0.174 -0.835,-0.363 -1.229,-0.552 v 0 c -0.679,-0.315 -1.357,-0.631 -2.034,-0.946 v 0 c -0.552,-0.252 -1.087,-0.52 -1.624,-0.788 v 0 c -1.34,-0.63 -2.648,-1.292 -3.956,-2.002 v 0 c -0.915,-0.457 -1.844,-0.945 -2.759,-1.45 v 0 c -1.151,-0.615 -2.302,-1.261 -3.452,-1.924 v 0 c -0.079,-0.047 -0.174,-0.094 -0.253,-0.141 v 0 c -1.15,-0.662 -2.285,-1.34 -3.42,-2.034 v 0 c -2.034,-1.229 -4.036,-2.507 -6.007,-3.83 v 0 c -0.757,-0.489 -1.497,-0.993 -2.238,-1.513 v 0 c -0.268,-0.174 -0.552,-0.363 -0.804,-0.552 v 0 c -0.757,-0.536 -1.497,-1.057 -2.238,-1.593 v 0 c -0.868,-0.615 -1.734,-1.245 -2.586,-1.907 v 0 c -0.079,-0.047 -0.157,-0.11 -0.236,-0.173 v 0 c -0.71,-0.521 -1.404,-1.057 -2.097,-1.608 v 0 c -0.079,-0.048 -0.173,-0.126 -0.252,-0.189 v 0 c -0.441,-0.348 -0.867,-0.678 -1.293,-1.025 v 0 c -1.592,-1.261 -3.168,-2.57 -4.713,-3.894 v 0 c -0.426,-0.362 -0.852,-0.74 -1.277,-1.103 v 0 c -0.504,-0.426 -0.993,-0.867 -1.482,-1.309 v 0 c -0.236,-0.205 -0.457,-0.409 -0.677,-0.614 v 0 c -0.332,-0.3 -0.678,-0.615 -1.009,-0.915 v 0 c -0.552,-0.504 -1.104,-1.024 -1.656,-1.529 v 0 c -0.062,-0.063 -0.125,-0.126 -0.189,-0.189 v 0 c -1.135,-1.072 -2.254,-2.16 -3.358,-3.263 v 0 c -1.104,-1.104 -2.191,-2.223 -3.263,-3.358 v 0 c -0.063,-0.063 -0.126,-0.126 -0.189,-0.189 v 0 c -0.504,-0.552 -1.025,-1.104 -1.529,-1.655 v 0 c -0.299,-0.332 -0.614,-0.678 -0.914,-1.009 v 0 c -0.205,-0.221 -0.41,-0.441 -0.615,-0.678 v 0 c -0.158,-0.174 -0.315,-0.346 -0.457,-0.52 v 0 c -0.52,-0.583 -1.04,-1.183 -1.561,-1.781 v 0 c -0.473,-0.537 -0.914,-1.072 -1.371,-1.609 v 0 c -0.205,-0.236 -0.41,-0.472 -0.615,-0.725 v 0 c -0.567,-0.693 -1.151,-1.387 -1.718,-2.096 v 0 c -0.126,-0.158 -0.253,-0.315 -0.379,-0.473 v 0 c -0.267,-0.331 -0.535,-0.678 -0.82,-1.025 v 0 c -0.062,-0.094 -0.157,-0.205 -0.236,-0.315 v 0 c -0.804,-1.025 -1.592,-2.049 -2.365,-3.09 v 0 c -0.047,-0.063 -0.11,-0.141 -0.157,-0.221 v 0 c -0.189,-0.235 -0.363,-0.472 -0.536,-0.709 v 0 c -0.031,-0.047 -0.063,-0.094 -0.094,-0.142 v 0 c -0.411,-0.536 -0.805,-1.072 -1.183,-1.624 v 0 c -0.598,-0.819 -1.183,-1.655 -1.75,-2.49 v 0 c 0,0 -0.031,-0.016 -0.015,-0.032 v 0 c -0.584,-0.835 -1.152,-1.671 -1.719,-2.522 v 0 c -7.677,-11.539 -13.982,-24.087 -18.68,-37.376 v 0 c -2.033,-5.738 -3.768,-11.634 -5.17,-17.656 v 0 c -0.19,-0.835 -0.394,-1.686 -0.584,-2.538 v 0 c -0.063,-0.268 -0.126,-0.535 -0.173,-0.803 v 0 c -0.016,-0.017 -0.016,-0.032 -0.016,-0.063 v 0 -0.032 -0.016 c -0.189,-0.867 -0.363,-1.75 -0.535,-2.616 v 0 c -0.032,-0.08 -0.048,-0.174 -0.064,-0.269 v 0 c -0.284,-1.45 -0.552,-2.916 -0.788,-4.382 v 0 c -0.394,-2.302 -0.741,-4.618 -1.025,-6.967 v 0 c -0.047,-0.269 -0.078,-0.537 -0.11,-0.805 v 0 c -0.016,-0.189 -0.047,-0.378 -0.063,-0.567 v 0 c -0.079,-0.709 -0.157,-1.419 -0.236,-2.144 v 0 c -0.615,-5.88 -0.931,-11.855 -0.931,-17.892 v 0 c 0,-6.038 0.316,-12.012 0.931,-17.892 v 0 c 0.063,-0.568 0.126,-1.135 0.189,-1.703 v 0 c 0.047,-0.394 0.094,-0.788 0.142,-1.182 v 0 c 0.299,-2.554 0.677,-5.075 1.103,-7.598 v 0 c 0.236,-1.466 0.504,-2.932 0.788,-4.382 v 0 c 0.016,-0.095 0.032,-0.189 0.064,-0.268 v 0 c 0.172,-0.867 0.346,-1.75 0.535,-2.617 v 0 -0.016 -0.031 c 0.016,-0.126 0.047,-0.237 0.079,-0.347 v 0 c 0.047,-0.236 0.095,-0.457 0.158,-0.678 v 0 c 0.173,-0.804 0.346,-1.592 0.536,-2.38 v 0 c 1.402,-6.022 3.137,-11.918 5.17,-17.656 v 0 c 4.698,-13.289 11.003,-25.837 18.68,-37.376 v 0 c 0.567,-0.852 1.135,-1.687 1.719,-2.522 v 0 c -0.016,-0.016 0.015,-0.032 0.015,-0.032 v 0 c 0.567,-0.836 1.152,-1.671 1.75,-2.491 v 0 c 0.285,-0.409 0.583,-0.82 0.883,-1.213 v 0 c 0.126,-0.19 0.252,-0.379 0.394,-0.552 v 0 c 0.173,-0.236 0.347,-0.473 0.536,-0.71 v 0 c 0.031,-0.063 0.079,-0.11 0.11,-0.173 v 0 l 0.047,-0.047 c 0.694,-0.93 1.404,-1.876 2.129,-2.79 v 0 c 0.157,-0.206 0.315,-0.395 0.457,-0.584 v 0 c 0.268,-0.362 0.552,-0.709 0.835,-1.056 v 0 c 0.126,-0.158 0.253,-0.315 0.379,-0.473 v 0 c 0.567,-0.709 1.151,-1.403 1.718,-2.097 v 0 c 0.205,-0.252 0.41,-0.488 0.615,-0.724 v 0 c 0.457,-0.537 0.898,-1.073 1.371,-1.608 v 0 c 0.521,-0.6 1.041,-1.198 1.561,-1.781 v 0 c 0.142,-0.174 0.299,-0.348 0.457,-0.521 v 0 c 0.205,-0.236 0.41,-0.457 0.615,-0.677 v 0 c 0.3,-0.332 0.615,-0.679 0.914,-1.009 v 0 c 0.504,-0.552 1.025,-1.104 1.529,-1.656 v 0 l 0.189,-0.189 c 1.072,-1.135 2.159,-2.254 3.263,-3.358 v 0 c 1.104,-1.104 2.223,-2.191 3.358,-3.263 v 0 c 0.064,-0.063 0.127,-0.126 0.189,-0.189 v 0 c 0.552,-0.505 1.104,-1.025 1.656,-1.529 v 0 c 0.331,-0.299 0.677,-0.615 1.009,-0.914 v 0 c 0.22,-0.205 0.441,-0.411 0.677,-0.615 v 0 c 0.489,-0.442 0.978,-0.883 1.482,-1.308 v 0 c 0.425,-0.363 0.851,-0.741 1.277,-1.104 v 0 c 1.545,-1.325 3.121,-2.632 4.713,-3.894 v 0 c 0.426,-0.347 0.852,-0.678 1.293,-1.024 v 0 c 0.079,-0.063 0.173,-0.143 0.252,-0.189 v 0 c 0.693,-0.552 1.387,-1.089 2.097,-1.609 v 0 c 0.079,-0.063 0.157,-0.126 0.236,-0.172 v 0 c 0.852,-0.663 1.718,-1.294 2.586,-1.909 v 0 c 0.741,-0.535 1.481,-1.055 2.238,-1.592 v 0 c 0.252,-0.189 0.536,-0.378 0.804,-0.551 v 0 c 0.741,-0.521 1.481,-1.025 2.238,-1.513 v 0 c 1.971,-1.325 3.973,-2.601 6.007,-3.831 v 0 c 1.135,-0.694 2.27,-1.372 3.42,-2.034 v 0 c 0.079,-0.047 0.174,-0.094 0.253,-0.142 v 0 c 1.15,-0.661 2.301,-1.308 3.452,-1.923 v 0 c 0.915,-0.504 1.844,-0.993 2.759,-1.45 v 0 c 1.308,-0.709 2.616,-1.372 3.956,-2.003 v 0 c 0.537,-0.267 1.072,-0.535 1.624,-0.787 v 0 l 2.034,-0.946 c 0.394,-0.189 0.803,-0.379 1.229,-0.552 v 0 c 1.088,-0.488 2.175,-0.977 3.279,-1.434 v 0 c 1.135,-0.474 2.27,-0.946 3.405,-1.403 v 0 c 1.072,-0.426 2.144,-0.835 3.248,-1.246 v 0 c 0.914,-0.346 1.844,-0.678 2.773,-1.009 v 0 c 0.032,-0.015 0.063,-0.031 0.096,-0.031 v 0 c 0.031,-0.016 0.063,-0.032 0.11,-0.032 v 0 c 0.929,-0.331 1.86,-0.646 2.791,-0.961 v 0 c 1.07,-0.363 2.142,-0.71 3.23,-1.04 v 0 c 1.324,-0.426 2.649,-0.82 3.988,-1.198 v 0 c 1.167,-0.331 2.349,-0.647 3.547,-0.962 v 0 c 0.694,-0.174 1.388,-0.363 2.081,-0.521 v 0 c 0.71,-0.189 1.419,-0.362 2.129,-0.52 v 0 c 0.299,-0.079 0.599,-0.142 0.898,-0.205 v 0 c 0.993,-0.236 1.971,-0.441 2.98,-0.646 v 0 c 0.425,-0.095 0.851,-0.189 1.276,-0.268 v 0 c 1.104,-0.221 2.208,-0.441 3.326,-0.63 v 0 c 0.127,-0.032 0.252,-0.048 0.379,-0.063 v 0 c 1.056,-0.206 2.128,-0.379 3.184,-0.537 v 0 c 0.41,-0.078 0.804,-0.141 1.214,-0.204 v 0 c 2.727,-0.411 5.454,-0.742 8.213,-1.025 v 0 c 1.072,-0.111 2.144,-0.205 3.232,-0.3 v 0 c 0.945,-0.078 1.907,-0.157 2.869,-0.205 v 0 c 0.204,-0.015 0.394,-0.031 0.599,-0.031 v 0 c 0.835,-0.064 1.686,-0.11 2.538,-0.142 v 0 c 1.025,-0.063 2.049,-0.094 3.074,-0.111 v 0 c 1.687,-0.063 3.389,-0.094 5.091,-0.094 v 0 56.75 c -0.505,0 -1.024,0 -1.529,0.016 v 0 c -0.252,0 -0.52,0 -0.772,0.016 v 0 c -0.426,0 -0.851,0.015 -1.277,0.031 v 0 c -0.441,0 -0.883,0.016 -1.324,0.047 v 0 c -0.442,0.016 -0.883,0.032 -1.309,0.063 v 0 c -0.851,0.048 -1.686,0.095 -2.522,0.159 v 0 c -0.93,0.062 -1.844,0.157 -2.759,0.235 v 0 c -0.52,0.063 -1.024,0.111 -1.529,0.174 v 0 c -0.094,0.016 -0.174,0.016 -0.252,0.031 v 0 c -0.426,0.048 -0.835,0.095 -1.261,0.158 v 0 c -0.094,0 -0.173,0.016 -0.268,0.031 v 0 c -0.772,0.095 -1.545,0.206 -2.301,0.315 v 0 c -0.379,0.064 -0.757,0.127 -1.135,0.19 v 0 c -0.379,0.047 -0.757,0.11 -1.135,0.189 v 0 c -0.474,0.079 -0.947,0.158 -1.435,0.252 v 0 c -1.229,0.221 -2.443,0.474 -3.657,0.741 v 0 c -0.599,0.126 -1.198,0.268 -1.797,0.41 v 0 c -0.615,0.142 -1.214,0.284 -1.813,0.442 v 0 c -0.095,0.031 -0.189,0.047 -0.284,0.079 v 0 c -0.599,0.157 -1.198,0.315 -1.797,0.472 v 0 c -0.189,0.048 -0.379,0.111 -0.552,0.158 v 0 c -0.22,0.063 -0.441,0.126 -0.646,0.19 v 0 c -0.031,0.015 -0.063,0.015 -0.094,0.031 v 0 c -0.174,0.047 -0.363,0.095 -0.537,0.158 v 0 c -0.157,0.031 -0.315,0.094 -0.472,0.141 v 0 c -0.126,0.016 -0.252,0.063 -0.379,0.111 v 0 c -0.52,0.142 -1.024,0.299 -1.529,0.472 v 0 c -0.032,0.016 -0.079,0.016 -0.11,0.032 v 0 c -0.426,0.126 -0.852,0.268 -1.261,0.41 v 0 c -0.331,0.095 -0.662,0.205 -0.977,0.315 v 0 c -0.048,0.016 -0.08,0.031 -0.111,0.048 v 0 c -0.3,0.094 -0.583,0.189 -0.883,0.298 v 0 c -0.063,0.033 -0.142,0.048 -0.205,0.08 v 0 c -0.488,0.173 -0.977,0.346 -1.465,0.536 v 0 c -0.505,0.173 -0.979,0.362 -1.466,0.552 v 0 c -0.332,0.11 -0.648,0.236 -0.978,0.378 v 0 c -0.49,0.189 -0.962,0.378 -1.435,0.583 v 0 c -0.315,0.126 -0.615,0.252 -0.914,0.378 v 0 c -0.851,0.363 -1.703,0.725 -2.538,1.103 v 0 c -0.3,0.143 -0.599,0.269 -0.883,0.411 v 0 c -0.457,0.205 -0.914,0.426 -1.355,0.646 v 0 c -0.158,0.063 -0.3,0.126 -0.442,0.205 v 0 c -0.141,0.063 -0.268,0.126 -0.394,0.205 v 0 c -0.284,0.126 -0.552,0.252 -0.82,0.394 v 0 c -0.693,0.347 -1.387,0.694 -2.08,1.072 v 0 c -0.411,0.205 -0.82,0.425 -1.23,0.647 v 0 c -0.126,0.063 -0.237,0.126 -0.362,0.204 v 0 c -0.836,0.442 -1.656,0.899 -2.475,1.372 v 0 c -0.947,0.551 -1.877,1.119 -2.806,1.686 v 0 c -0.048,0.032 -0.111,0.063 -0.158,0.095 v 0 c -0.505,0.316 -1.009,0.631 -1.497,0.946 v 0 l -0.521,0.331 c -0.425,0.283 -0.851,0.551 -1.262,0.835 v 0 c -0.109,0.063 -0.22,0.142 -0.315,0.205 v 0 c -0.031,0.032 -0.046,0.048 -0.078,0.063 v 0 c -1.545,1.041 -3.043,2.097 -4.525,3.216 v 0 c -0.725,0.536 -1.45,1.088 -2.159,1.655 v 0 c -0.331,0.268 -0.678,0.536 -1.009,0.805 v 0 c -0.048,0.031 -0.079,0.063 -0.111,0.094 v 0 c -0.031,0.015 -0.063,0.047 -0.11,0.095 v 0 c -0.142,0.109 -0.299,0.22 -0.441,0.331 v 0 c -0.063,0.063 -0.11,0.11 -0.174,0.157 v 0 c -0.047,0.032 -0.078,0.063 -0.125,0.095 v 0 c -0.348,0.283 -0.694,0.568 -1.025,0.866 v 0 c -0.221,0.174 -0.441,0.363 -0.663,0.552 v 0 c -0.031,0.032 -0.047,0.048 -0.078,0.063 v 0 l -0.016,0.016 c -1.182,1.025 -2.365,2.065 -3.499,3.137 v 0 c -0.126,0.111 -0.269,0.237 -0.395,0.363 v 0 c -0.157,0.142 -0.315,0.299 -0.473,0.457 v 0 c -0.299,0.268 -0.599,0.551 -0.882,0.836 v 0 c -0.095,0.094 -0.205,0.189 -0.3,0.299 v 0 c -0.472,0.457 -0.929,0.914 -1.403,1.403 v 0 c -0.52,0.52 -1.025,1.04 -1.545,1.577 v 0 c -0.032,0.046 -0.095,0.109 -0.141,0.157 v 0 c -0.063,0.079 -0.143,0.142 -0.206,0.221 v 0 c -0.567,0.599 -1.118,1.198 -1.638,1.797 v 0 c -0.363,0.378 -0.711,0.772 -1.057,1.166 v 0 c -0.126,0.142 -0.237,0.269 -0.348,0.41 v 0 c -0.519,0.599 -1.039,1.199 -1.544,1.813 v 0 c -0.363,0.426 -0.709,0.867 -1.056,1.293 v 0 c -0.22,0.268 -0.442,0.551 -0.662,0.82 v 0 c -0.71,0.882 -1.388,1.765 -2.066,2.679 v 0 c -0.393,0.536 -0.787,1.072 -1.181,1.624 v 0 c -0.032,0.047 -0.063,0.079 -0.095,0.126 v 0 c -0.064,0.063 -0.11,0.142 -0.157,0.205 v 0 c -0.032,0.047 -0.063,0.079 -0.096,0.126 v 0 c -0.015,0.032 -0.031,0.047 -0.046,0.079 v 0 c -0.08,0.111 -0.158,0.237 -0.252,0.346 v 0 c -0.411,0.6 -0.837,1.214 -1.246,1.829 v 0 c -0.52,0.741 -1.009,1.514 -1.513,2.27 v 0 c -0.473,0.742 -0.914,1.466 -1.371,2.208 v 0 c -0.442,0.74 -0.883,1.481 -1.325,2.222 v 0 c -0.504,0.883 -0.993,1.766 -1.482,2.648 v 0 c -0.157,0.3 -0.331,0.615 -0.488,0.915 v 0 c -0.363,0.678 -0.71,1.355 -1.057,2.033 v 0 c -0.331,0.646 -0.646,1.292 -0.961,1.955 v 0 c -0.095,0.189 -0.174,0.379 -0.268,0.568 v 0 c -0.048,0.11 -0.095,0.204 -0.142,0.315 v 0 c -0.031,0.047 -0.063,0.094 -0.079,0.157 v 0 c -0.031,0.048 -0.048,0.111 -0.079,0.158 v 0 c -0.047,0.094 -0.095,0.205 -0.141,0.316 v 0 c -0.143,0.298 -0.285,0.598 -0.41,0.898 v 0 c -0.142,0.315 -0.284,0.615 -0.426,0.929 v 0 c -0.047,0.096 -0.079,0.19 -0.126,0.3 v 0 c -0.142,0.315 -0.284,0.646 -0.426,0.978 v 0 c -0.079,0.173 -0.142,0.347 -0.221,0.52 v 0 c -0.015,0.031 -0.031,0.063 -0.031,0.094 v 0 c -0.11,0.221 -0.205,0.458 -0.3,0.678 v 0 c -0.141,0.347 -0.3,0.71 -0.426,1.057 v 0 c -0.015,0.031 -0.015,0.046 -0.031,0.079 v 0 c -0.063,0.157 -0.126,0.315 -0.189,0.472 v 0 c -0.221,0.537 -0.426,1.088 -0.631,1.64 v 0 c -0.062,0.158 -0.126,0.33 -0.173,0.489 v 0 c -0.19,0.504 -0.378,1.009 -0.551,1.513 v 0 c -0.206,0.536 -0.395,1.088 -0.568,1.639 v 0 c -0.189,0.552 -0.378,1.104 -0.552,1.671 v 0 c -0.11,0.331 -0.221,0.646 -0.315,0.977 v 0 c -0.142,0.442 -0.268,0.868 -0.394,1.309 v 0 c -0.032,0.094 -0.063,0.189 -0.08,0.283 v 0 c -0.172,0.537 -0.33,1.072 -0.472,1.624 v 0 c -0.016,0.048 -0.031,0.111 -0.048,0.158 v 0 c -0.078,0.284 -0.157,0.567 -0.235,0.867 v 0 c -0.111,0.378 -0.206,0.757 -0.3,1.135 v 0 h 109.921 v 56.75 H 713.414 c 0.031,0.11 0.047,0.205 0.079,0.299 v 0 c 0.078,0.285 0.141,0.568 0.221,0.836 v 0 c 0.078,0.3 0.157,0.583 0.235,0.867 v 0 c 0.017,0.048 0.032,0.111 0.048,0.158 v 0 c 0.142,0.551 0.3,1.088 0.472,1.623 v 0 c 0.017,0.095 0.048,0.189 0.08,0.284 v 0 c 0.063,0.221 0.126,0.442 0.189,0.662 v 0 c 0.063,0.22 0.142,0.442 0.205,0.646 v 0 c 0.094,0.331 0.205,0.646 0.315,0.978 v 0 c 0.346,1.119 0.725,2.223 1.12,3.311 v 0 c 0.173,0.504 0.361,1.009 0.551,1.513 v 0 c 0.315,0.882 0.646,1.749 0.993,2.601 v 0 c 0.142,0.378 0.3,0.757 0.457,1.135 v 0 c 0.111,0.251 0.221,0.52 0.331,0.772 v 0 c 0.079,0.173 0.142,0.347 0.221,0.52 v 0 c 0.142,0.331 0.284,0.662 0.426,0.977 v 0 c 0.047,0.111 0.079,0.205 0.126,0.3 v 0 c 0.142,0.316 0.284,0.615 0.426,0.931 v 0 c 0.125,0.298 0.267,0.598 0.41,0.898 v 0 c 0.046,0.11 0.094,0.22 0.141,0.315 v 0 c 0.031,0.047 0.048,0.11 0.079,0.157 v 0 c 0.016,0.064 0.048,0.111 0.079,0.159 v 0 c 0.047,0.109 0.094,0.204 0.142,0.315 v 0 c 0.094,0.189 0.173,0.378 0.268,0.568 v 0 c 0.315,0.661 0.63,1.307 0.961,1.953 v 0 c 0.347,0.679 0.694,1.357 1.057,2.034 v 0 c 0.157,0.3 0.331,0.615 0.488,0.915 v 0 c 0.489,0.883 0.978,1.766 1.482,2.648 v 0 c 0.41,0.71 0.835,1.403 1.245,2.097 v 0 c 0.489,0.788 0.961,1.56 1.451,2.332 v 0 c 0.504,0.757 0.993,1.53 1.513,2.27 v 0 c 0.409,0.616 0.835,1.231 1.246,1.829 v 0 c 0.094,0.111 0.172,0.237 0.252,0.348 v 0 c 0.015,0.031 0.031,0.046 0.046,0.078 v 0 c 0.08,0.11 0.158,0.22 0.253,0.331 v 0 c 0.032,0.048 0.063,0.079 0.095,0.126 v 0 c 1.04,1.466 2.128,2.901 3.247,4.304 v 0 c 0.22,0.268 0.442,0.552 0.662,0.82 v 0 c 0.347,0.424 0.693,0.866 1.056,1.292 v 0 c 2.049,2.475 4.209,4.856 6.479,7.141 v 0 c 0.378,0.394 0.772,0.788 1.167,1.166 v 0 c 1.071,1.072 2.175,2.113 3.294,3.122 v 0 c 0.379,0.347 0.757,0.693 1.152,1.024 v 0 c 0.441,0.41 0.882,0.789 1.339,1.183 v 0 c 0.031,0.015 0.063,0.047 0.094,0.078 v 0 c 0.222,0.189 0.442,0.379 0.663,0.552 v 0 c 0.331,0.3 0.677,0.583 1.025,0.868 v 0 c 0.047,0.031 0.078,0.063 0.125,0.094 v 0 c 0.064,0.047 0.111,0.095 0.174,0.158 v 0 c 0.142,0.109 0.299,0.22 0.441,0.331 v 0 c 0.047,0.047 0.079,0.078 0.11,0.094 v 0 c 0.032,0.032 0.063,0.063 0.111,0.095 v 0 c 0.331,0.268 0.678,0.535 1.009,0.803 v 0 c 0.709,0.568 1.434,1.12 2.159,1.656 v 0 c 1.482,1.119 2.98,2.175 4.525,3.216 v 0 c 0.173,0.11 0.347,0.236 0.52,0.347 v 0 c 0.158,0.109 0.332,0.22 0.504,0.331 v 0 c 0.206,0.141 0.41,0.283 0.631,0.409 v 0 c 0.741,0.489 1.482,0.962 2.239,1.419 v 0 c 0.898,0.568 1.812,1.119 2.743,1.655 v 0 c 0.078,0.032 0.141,0.079 0.204,0.111 v 0 c 0.016,0.016 0.016,0.016 0.032,0.016 v 0 l 0.016,0.015 c 0.315,0.174 0.63,0.363 0.961,0.536 v 0 c 0.535,0.315 1.088,0.615 1.624,0.899 v 0 c 0.41,0.22 0.819,0.442 1.23,0.646 v 0 c 0.362,0.205 0.724,0.394 1.087,0.568 v 0 c 0.158,0.094 0.315,0.173 0.474,0.236 v 0 c 0.172,0.095 0.346,0.189 0.519,0.268 v 0 c 0.268,0.142 0.536,0.268 0.82,0.394 v 0 c 0.126,0.079 0.253,0.142 0.394,0.205 v 0 c 0.142,0.078 0.3,0.141 0.442,0.205 v 0 c 0.441,0.221 0.898,0.441 1.355,0.647 v 0 c 0.331,0.157 0.678,0.315 1.009,0.457 v 0 c 0.804,0.362 1.592,0.709 2.412,1.055 v 0 c 0.426,0.19 0.851,0.363 1.277,0.521 v 0 c 0.362,0.142 0.709,0.299 1.072,0.442 v 0 c 0.33,0.141 0.646,0.267 0.978,0.378 v 0 c 0.961,0.378 1.954,0.74 2.931,1.088 v 0 c 0.362,0.126 0.725,0.252 1.088,0.378 v 0 c 0.363,0.126 0.725,0.252 1.088,0.362 v 0 c 0.457,0.158 0.914,0.315 1.371,0.441 v 0 c 0.505,0.174 1.009,0.332 1.529,0.474 v 0 c 0.127,0.047 0.253,0.094 0.379,0.11 v 0 c 0.362,0.126 0.74,0.236 1.103,0.331 v 0 c 0.205,0.063 0.426,0.126 0.646,0.189 v 0 c 0.173,0.047 0.363,0.111 0.552,0.157 v 0 c 0.599,0.159 1.198,0.316 1.797,0.474 v 0 c 0.095,0.031 0.189,0.046 0.284,0.079 v 0 c 0.599,0.157 1.198,0.299 1.813,0.441 v 0 c 0.599,0.142 1.198,0.283 1.797,0.409 v 0 c 1.214,0.269 2.428,0.521 3.657,0.742 v 0 c 0.488,0.094 0.961,0.173 1.435,0.252 v 0 c 0.378,0.078 0.756,0.142 1.135,0.189 v 0 c 0.378,0.063 0.756,0.126 1.135,0.189 v 0 c 0.756,0.111 1.529,0.221 2.301,0.316 v 0 c 0.095,0.015 0.174,0.031 0.268,0.031 v 0 c 0.394,0.063 0.772,0.11 1.167,0.142 v 0 c 0.11,0.016 0.22,0.031 0.346,0.047 v 0 c 0.505,0.063 1.009,0.11 1.529,0.173 v 0 c 0.915,0.079 1.829,0.174 2.759,0.237 v 0 c 0.836,0.063 1.671,0.111 2.522,0.157 v 0 c 0.442,0.017 0.867,0.048 1.309,0.063 v 0 c 0.441,0.032 0.883,0.048 1.324,0.048 v 0 c 0.426,0.015 0.851,0.032 1.277,0.032 v 0 c 0.252,0.015 0.504,0.015 0.772,0.015 v 0 c 0.505,0.016 1.024,0.016 1.529,0.016 v 0 56.75 c -1.702,0 -3.404,-0.032 -5.091,-0.095" /></g></g></g></g><g
       id="g108"><g
         clip-path="url(#clipPath114)"
         id="g110"><g
           transform="translate(965.0056,445.9976)"
           id="g116"><path
             id="path118"
             style="fill:#4a4895;fill-opacity:1;fill-rule:nonzero;stroke:none"
             d="m 0,0 -0.016,-0.016 c -0.552,-0.835 -1.119,-1.655 -1.687,-2.475 -0.504,-0.741 -1.024,-1.466 -1.529,-2.191 -1.292,-1.797 -2.617,-3.563 -3.972,-5.297 -0.426,-0.551 -0.852,-1.103 -1.277,-1.639 -0.993,-1.245 -1.986,-2.459 -3.011,-3.657 -1.056,-1.261 -2.144,-2.507 -3.247,-3.736 0,-0.016 -0.016,-0.032 -0.032,-0.048 0,-0.015 -0.016,-0.015 -0.016,-0.015 -1.024,-1.151 -2.081,-2.286 -3.137,-3.421 -0.031,-0.032 -0.047,-0.047 -0.079,-0.079 -1.071,-1.135 -2.159,-2.254 -3.278,-3.373 -1.12,-1.12 -2.239,-2.207 -3.374,-3.279 l -0.079,-0.079 c -1.135,-1.056 -2.27,-2.112 -3.42,-3.137 0,0 0,-0.016 -0.016,-0.016 0,-0.016 -0.016,-0.016 -0.032,-0.031 -0.977,-0.883 -1.97,-1.75 -2.979,-2.601 -0.095,-0.095 -0.205,-0.174 -0.315,-0.268 -0.946,-0.804 -1.908,-1.593 -2.869,-2.381 -0.079,-0.063 -0.158,-0.142 -0.253,-0.205 -0.867,-0.709 -1.749,-1.403 -2.632,-2.096 -0.568,-0.442 -1.135,-0.867 -1.703,-1.293 -0.914,-0.709 -1.844,-1.403 -2.79,-2.065 -0.709,-0.52 -1.419,-1.04 -2.144,-1.545 -0.41,-0.299 -0.851,-0.599 -1.277,-0.883 -0.772,-0.536 -1.56,-1.072 -2.349,-1.592 -0.189,-0.126 -0.378,-0.252 -0.567,-0.362 -0.93,-0.631 -1.86,-1.23 -2.806,-1.813 -0.993,-0.647 -2.002,-1.277 -3.027,-1.876 -0.599,-0.378 -1.214,-0.741 -1.828,-1.088 -0.646,-0.378 -1.309,-0.757 -1.971,-1.135 -0.599,-0.347 -1.214,-0.693 -1.813,-1.009 -0.551,-0.315 -1.103,-0.615 -1.655,-0.898 -0.615,-0.347 -1.245,-0.678 -1.86,-0.978 -0.646,-0.362 -1.308,-0.709 -1.986,-1.04 -0.473,-0.237 -0.93,-0.473 -1.419,-0.694 -0.883,-0.457 -1.765,-0.882 -2.648,-1.292 -0.3,-0.142 -0.599,-0.284 -0.915,-0.426 -0.804,-0.378 -1.623,-0.757 -2.443,-1.103 -0.583,-0.268 -1.167,-0.521 -1.75,-0.773 -0.898,-0.394 -1.781,-0.772 -2.695,-1.135 -0.111,-0.063 -0.237,-0.11 -0.363,-0.142 -1.183,-0.504 -2.38,-0.977 -3.578,-1.434 -0.095,-0.048 -0.205,-0.079 -0.315,-0.111 -1.231,-0.472 -2.46,-0.93 -3.705,-1.355 -0.016,-0.016 -0.032,-0.032 -0.063,-0.032 -0.032,-0.016 -0.063,-0.031 -0.111,-0.031 -0.93,-0.331 -1.86,-0.647 -2.79,-0.962 -1.072,-0.362 -2.144,-0.709 -3.232,-1.04 -1.324,-0.426 -2.648,-0.82 -3.988,-1.198 -1.166,-0.331 -2.348,-0.647 -3.546,-0.962 -0.694,-0.173 -1.372,-0.347 -2.066,-0.52 -0.709,-0.189 -1.434,-0.347 -2.144,-0.52 -0.299,-0.079 -0.599,-0.142 -0.898,-0.205 -0.993,-0.237 -1.97,-0.442 -2.979,-0.647 -0.426,-0.094 -0.852,-0.189 -1.277,-0.268 -1.104,-0.22 -2.207,-0.441 -3.326,-0.63 -0.127,-0.032 -0.252,-0.048 -0.379,-0.063 -1.056,-0.205 -2.128,-0.379 -3.184,-0.536 -0.41,-0.079 -0.804,-0.142 -1.214,-0.205 -2.727,-0.41 -5.454,-0.741 -8.213,-1.025 -1.072,-0.11 -2.144,-0.205 -3.232,-0.299 -0.945,-0.079 -1.907,-0.158 -2.869,-0.205 -0.204,-0.016 -0.394,-0.032 -0.598,-0.032 -0.836,-0.063 -1.687,-0.11 -2.539,-0.142 -1.024,-0.063 -2.049,-0.094 -3.074,-0.11 -1.686,-0.063 -3.389,-0.095 -5.091,-0.095 v 56.75 c 0.504,0 1.024,0 1.529,0.016 0.252,0 0.52,0 0.772,0.016 0.426,0 0.852,0.016 1.277,0.032 0.442,0 0.883,0.015 1.324,0.047 0.442,0.016 0.883,0.031 1.309,0.063 0.851,0.047 1.686,0.094 2.522,0.157 0.93,0.064 1.844,0.158 2.759,0.237 0.52,0.063 1.024,0.11 1.529,0.173 0.094,0.016 0.173,0.016 0.252,0.032 0.426,0.047 0.835,0.094 1.261,0.158 0.095,0 0.174,0.015 0.268,0.031 0.772,0.095 1.545,0.205 2.302,0.315 0.378,0.063 0.756,0.126 1.135,0.189 0.378,0.048 0.756,0.111 1.135,0.19 0.473,0.078 0.946,0.157 1.434,0.252 1.23,0.221 2.443,0.473 3.657,0.741 0.599,0.126 1.198,0.268 1.797,0.41 0.615,0.142 1.214,0.283 1.813,0.441 0.095,0.032 0.189,0.047 0.284,0.079 0.709,0.173 1.403,0.362 2.097,0.567 0.504,0.126 0.993,0.268 1.481,0.426 0.3,0.079 0.6,0.158 0.899,0.268 0.52,0.142 1.025,0.299 1.529,0.473 0.032,0.016 0.079,0.016 0.111,0.031 0.425,0.127 0.85,0.268 1.26,0.41 0.331,0.095 0.663,0.205 0.978,0.316 0.047,0.015 0.079,0.031 0.11,0.047 0.3,0.094 0.583,0.189 0.883,0.299 0.063,0.032 0.142,0.048 0.205,0.079 0.488,0.174 0.977,0.347 1.466,0.536 0.504,0.174 0.977,0.363 1.466,0.552 0.331,0.11 0.646,0.236 0.977,0.378 0.489,0.189 0.962,0.379 1.435,0.584 0.315,0.126 0.615,0.252 0.914,0.378 0.852,0.362 1.703,0.725 2.538,1.103 0.3,0.142 0.599,0.268 0.883,0.41 0.457,0.205 0.914,0.426 1.356,0.646 0.157,0.063 0.299,0.127 0.441,0.205 0.142,0.063 0.268,0.126 0.394,0.205 0.284,0.126 0.552,0.253 0.82,0.394 0.693,0.347 1.387,0.694 2.081,1.072 0.409,0.205 0.819,0.426 1.229,0.647 0.126,0.063 0.237,0.126 0.363,0.205 0.835,0.441 1.655,0.898 2.475,1.371 0.221,0.142 0.457,0.268 0.678,0.41 0.709,0.41 1.418,0.835 2.128,1.277 0.362,0.221 0.709,0.441 1.056,0.662 0.41,0.252 0.804,0.504 1.198,0.772 0.236,0.142 0.473,0.3 0.693,0.457 0.316,0.205 0.631,0.41 0.946,0.631 0.237,0.158 0.473,0.315 0.694,0.473 0.394,0.268 0.788,0.536 1.166,0.804 0.269,0.189 0.552,0.394 0.82,0.583 0.741,0.536 1.482,1.072 2.207,1.64 0.221,0.157 0.458,0.331 0.678,0.504 0.079,0.063 0.158,0.126 0.236,0.189 0.095,0.063 0.19,0.142 0.284,0.221 0.063,0.031 0.11,0.079 0.174,0.142 0.063,0.031 0.11,0.079 0.173,0.126 0.063,0.047 0.126,0.094 0.189,0.142 0.063,0.047 0.126,0.094 0.19,0.173 0.047,0.016 0.094,0.063 0.141,0.111 0.016,0 0.016,0 0.032,0.015 0.536,0.41 1.056,0.836 1.576,1.261 0.773,0.631 1.529,1.262 2.27,1.908 0.126,0.11 0.252,0.221 0.378,0.331 0.3,0.252 0.6,0.52 0.883,0.788 0.647,0.568 1.293,1.151 1.924,1.75 0.031,0.031 0.078,0.079 0.126,0.11 0.063,0.063 0.126,0.126 0.189,0.189 0.031,0.032 0.063,0.063 0.094,0.095 0.615,0.567 1.214,1.151 1.813,1.75 l 0.095,0.094 c 0.425,0.41 0.835,0.82 1.245,1.246 0.11,0.11 0.221,0.236 0.331,0.346 0.914,0.915 1.797,1.861 2.649,2.806 0.094,0.095 0.189,0.205 0.267,0.3 0.253,0.268 0.505,0.552 0.741,0.835 0.332,0.363 0.647,0.71 0.946,1.072 0.126,0.142 0.252,0.284 0.363,0.426 0.11,0.11 0.205,0.236 0.299,0.347 0.126,0.142 0.237,0.284 0.347,0.425 0.221,0.237 0.41,0.473 0.615,0.71 0.426,0.52 0.836,1.04 1.245,1.56 0.237,0.284 0.473,0.568 0.694,0.867 0.047,0.064 0.11,0.142 0.158,0.205 0.031,0.048 0.062,0.079 0.078,0.126 0.032,0.016 0.048,0.032 0.048,0.048 0.142,0.173 0.283,0.347 0.409,0.536 0.331,0.41 0.647,0.835 0.946,1.261 0.316,0.41 0.615,0.82 0.914,1.229 0.269,0.363 0.521,0.726 0.773,1.088 0.552,0.757 1.072,1.529 1.592,2.317 L -28.17,18.775 Z" /></g><g
           transform="translate(991.2208,568.814)"
           id="g120"><path
             id="path122"
             style="fill:#4a4895;fill-opacity:1;fill-rule:nonzero;stroke:none"
             d="m 0,0 h -57.964 c -0.173,0.709 -0.362,1.403 -0.567,2.097 -0.063,0.22 -0.126,0.457 -0.189,0.677 l -0.095,0.332 c -0.032,0.141 -0.079,0.299 -0.126,0.441 -0.063,0.221 -0.126,0.426 -0.189,0.646 -0.048,0.158 -0.095,0.315 -0.142,0.473 -0.316,1.009 -0.631,2.034 -0.962,3.027 -0.331,0.993 -0.678,1.97 -1.04,2.948 -0.158,0.441 -0.331,0.882 -0.505,1.324 -0.063,0.205 -0.142,0.394 -0.22,0.583 -0.158,0.441 -0.347,0.883 -0.52,1.324 -0.064,0.205 -0.158,0.394 -0.237,0.584 -0.079,0.236 -0.173,0.457 -0.284,0.677 -0.236,0.599 -0.473,1.183 -0.741,1.75 -0.094,0.237 -0.205,0.473 -0.315,0.71 -0.126,0.315 -0.252,0.614 -0.394,0.914 -0.205,0.457 -0.426,0.914 -0.631,1.356 -0.173,0.362 -0.346,0.725 -0.504,1.072 -0.079,0.141 -0.142,0.283 -0.205,0.409 -0.11,0.221 -0.221,0.442 -0.331,0.662 -0.252,0.536 -0.52,1.057 -0.804,1.593 -0.063,0.126 -0.142,0.268 -0.205,0.409 -0.047,0.079 -0.079,0.142 -0.11,0.205 -0.079,0.158 -0.158,0.3 -0.237,0.458 -0.126,0.236 -0.268,0.488 -0.394,0.725 -0.205,0.378 -0.41,0.741 -0.615,1.119 -0.346,0.615 -0.693,1.245 -1.04,1.86 -0.142,0.221 -0.268,0.457 -0.41,0.678 -0.41,0.709 -0.835,1.419 -1.277,2.128 -0.205,0.347 -0.41,0.678 -0.63,1.009 -0.363,0.583 -0.741,1.151 -1.12,1.718 -0.252,0.394 -0.504,0.788 -0.772,1.167 -0.157,0.236 -0.315,0.473 -0.473,0.693 -0.268,0.394 -0.536,0.788 -0.804,1.167 -0.189,0.268 -0.394,0.552 -0.583,0.82 -0.536,0.74 -1.072,1.481 -1.64,2.206 -0.157,0.221 -0.331,0.458 -0.504,0.678 -0.063,0.079 -0.126,0.158 -0.189,0.237 -0.063,0.094 -0.142,0.189 -0.221,0.283 -0.032,0.064 -0.079,0.111 -0.142,0.174 -0.079,0.126 -0.173,0.236 -0.268,0.362 -0.094,0.127 -0.189,0.237 -0.299,0.363 -0.41,0.536 -0.82,1.056 -1.261,1.576 -0.631,0.773 -1.261,1.53 -1.908,2.27 -0.11,0.127 -0.22,0.253 -0.331,0.379 -0.158,0.189 -0.331,0.362 -0.489,0.552 -0.677,0.756 -1.355,1.513 -2.049,2.254 -0.079,0.079 -0.142,0.157 -0.236,0.236 -0.032,0.063 -0.095,0.111 -0.158,0.174 -0.126,0.141 -0.268,0.283 -0.394,0.425 -0.158,0.158 -0.3,0.316 -0.457,0.473 -0.473,0.505 -0.962,0.993 -1.451,1.482 -0.488,0.489 -0.977,0.977 -1.481,1.45 -0.158,0.158 -0.315,0.3 -0.473,0.457 -0.142,0.127 -0.284,0.268 -0.426,0.394 -0.063,0.064 -0.11,0.127 -0.173,0.158 -0.079,0.095 -0.158,0.158 -0.236,0.237 -0.742,0.693 -1.498,1.371 -2.255,2.049 -0.189,0.158 -0.363,0.331 -0.552,0.489 -0.126,0.11 -0.252,0.22 -0.378,0.331 -0.741,0.646 -1.498,1.276 -2.27,1.907 -0.378,0.315 -0.757,0.631 -1.151,0.93 -0.252,0.221 -0.52,0.426 -0.788,0.631 -0.126,0.094 -0.236,0.189 -0.363,0.268 -0.063,0.063 -0.11,0.11 -0.173,0.142 -0.094,0.078 -0.189,0.157 -0.284,0.22 -0.079,0.063 -0.157,0.126 -0.236,0.189 -0.221,0.174 -0.457,0.347 -0.678,0.505 -0.725,0.567 -1.466,1.103 -2.207,1.639 -0.268,0.189 -0.551,0.394 -0.82,0.584 -0.378,0.268 -0.772,0.536 -1.166,0.804 -0.221,0.157 -0.457,0.315 -0.694,0.472 -0.315,0.221 -0.63,0.426 -0.946,0.631 -0.22,0.158 -0.457,0.315 -0.693,0.457 -0.394,0.268 -0.788,0.52 -1.198,0.773 -0.347,0.22 -0.694,0.441 -1.056,0.662 -0.71,0.441 -1.419,0.867 -2.129,1.276 -0.22,0.142 -0.456,0.269 -0.677,0.41 -0.079,0.032 -0.142,0.079 -0.205,0.111 -0.016,0.015 -0.032,0.015 -0.032,0.015 l -0.016,0.016 c -0.315,0.174 -0.63,0.363 -0.961,0.536 -0.536,0.316 -1.088,0.615 -1.624,0.899 -0.41,0.22 -0.82,0.441 -1.23,0.646 -0.362,0.205 -0.725,0.394 -1.087,0.568 -0.158,0.094 -0.315,0.173 -0.473,0.236 -0.173,0.095 -0.347,0.189 -0.52,0.268 -0.268,0.142 -0.536,0.268 -0.82,0.394 -0.126,0.079 -0.252,0.142 -0.394,0.205 -0.142,0.079 -0.299,0.142 -0.441,0.205 -0.442,0.221 -0.899,0.441 -1.356,0.646 -0.331,0.158 -0.678,0.316 -1.009,0.458 -0.804,0.362 -1.592,0.709 -2.412,1.056 -0.426,0.189 -0.851,0.362 -1.277,0.52 -0.347,0.157 -0.709,0.299 -1.072,0.441 -0.331,0.142 -0.646,0.268 -0.977,0.379 -0.962,0.378 -1.955,0.741 -2.932,1.087 -0.363,0.126 -0.725,0.253 -1.088,0.379 -0.363,0.126 -0.725,0.252 -1.088,0.362 -0.457,0.158 -0.914,0.315 -1.371,0.442 -0.505,0.173 -1.009,0.331 -1.529,0.472 -0.126,0.048 -0.253,0.095 -0.378,0.111 -0.363,0.126 -0.741,0.236 -1.104,0.331 -0.205,0.063 -0.425,0.126 -0.646,0.189 -0.174,0.047 -0.363,0.11 -0.552,0.158 -0.599,0.157 -1.198,0.315 -1.797,0.473 -0.095,0.031 -0.189,0.047 -0.284,0.078 -0.599,0.158 -1.198,0.3 -1.813,0.442 -0.599,0.142 -1.198,0.284 -1.797,0.41 -1.214,0.268 -2.428,0.52 -3.657,0.741 -0.489,0.094 -0.962,0.173 -1.435,0.252 -0.378,0.079 -0.756,0.142 -1.134,0.189 -0.379,0.063 -0.757,0.126 -1.135,0.189 -0.757,0.11 -1.53,0.221 -2.302,0.315 -0.095,0.016 -0.173,0.032 -0.268,0.032 -0.394,0.063 -0.773,0.11 -1.167,0.142 -0.11,0.016 -0.22,0.031 -0.346,0.047 -0.505,0.063 -1.009,0.111 -1.529,0.173 -0.915,0.079 -1.829,0.174 -2.759,0.237 -0.836,0.063 -1.671,0.11 -2.522,0.158 -0.442,0.015 -0.867,0.047 -1.309,0.063 -0.441,0.031 -0.883,0.047 -1.324,0.047 -0.426,0.016 -0.851,0.032 -1.277,0.032 -0.252,0.015 -0.504,0.015 -0.772,0.015 -0.505,0.016 -1.025,0.016 -1.529,0.016 v 56.75 c 1.702,0 3.404,-0.031 5.091,-0.095 1.025,-0.015 2.05,-0.047 3.074,-0.11 0.851,-0.031 1.703,-0.079 2.538,-0.142 0.205,0 0.394,-0.016 0.599,-0.031 0.962,-0.048 1.924,-0.126 2.869,-0.205 1.088,-0.095 2.16,-0.189 3.232,-0.3 2.759,-0.284 5.486,-0.615 8.213,-1.024 0.41,-0.063 0.804,-0.127 1.214,-0.205 1.056,-0.158 2.128,-0.331 3.184,-0.536 0.126,-0.016 0.252,-0.032 0.378,-0.063 1.12,-0.19 2.223,-0.41 3.327,-0.631 0.425,-0.079 0.851,-0.173 1.276,-0.268 0.994,-0.205 1.987,-0.426 2.98,-0.646 0.299,-0.063 0.599,-0.126 0.898,-0.205 0.71,-0.174 1.435,-0.331 2.144,-0.52 0.694,-0.174 1.372,-0.347 2.065,-0.521 1.199,-0.315 2.381,-0.63 3.547,-0.961 1.34,-0.378 2.664,-0.773 3.988,-1.198 1.088,-0.331 2.16,-0.678 3.232,-1.041 0.93,-0.315 1.86,-0.63 2.79,-0.961 0.048,0 0.079,-0.016 0.111,-0.032 0.031,0 0.047,-0.016 0.063,-0.031 1.245,-0.426 2.474,-0.883 3.704,-1.356 0.11,-0.032 0.221,-0.063 0.316,-0.11 1.198,-0.458 2.395,-0.93 3.578,-1.435 0.126,-0.031 0.252,-0.079 0.363,-0.142 0.914,-0.362 1.796,-0.741 2.695,-1.135 0.583,-0.252 1.167,-0.504 1.75,-0.772 0.819,-0.347 1.639,-0.725 2.443,-1.104 0.315,-0.142 0.615,-0.283 0.915,-0.425 0.882,-0.41 1.765,-0.836 2.648,-1.293 0.489,-0.221 0.946,-0.457 1.419,-0.693 0.678,-0.332 1.34,-0.678 1.986,-1.041 0.615,-0.299 1.245,-0.63 1.86,-0.977 0.552,-0.284 1.103,-0.584 1.655,-0.899 0.599,-0.315 1.214,-0.662 1.813,-1.009 0.662,-0.378 1.324,-0.756 1.971,-1.135 0.614,-0.347 1.229,-0.709 1.828,-1.087 1.025,-0.599 2.034,-1.23 3.027,-1.876 0.946,-0.584 1.876,-1.183 2.806,-1.813 0.189,-0.11 0.378,-0.237 0.567,-0.363 0.788,-0.52 1.577,-1.056 2.349,-1.592 0.426,-0.284 0.867,-0.583 1.277,-0.883 0.725,-0.504 1.434,-1.024 2.144,-1.545 0.946,-0.662 1.876,-1.355 2.79,-2.065 0.568,-0.425 1.135,-0.851 1.703,-1.292 0.882,-0.694 1.765,-1.388 2.632,-2.097 0.095,-0.063 0.174,-0.142 0.252,-0.205 0.962,-0.788 1.924,-1.576 2.87,-2.38 0.11,-0.095 0.22,-0.173 0.315,-0.268 1.009,-0.851 2.001,-1.718 2.979,-2.601 0.016,-0.016 0.032,-0.016 0.032,-0.032 0.015,0 0.015,-0.015 0.015,-0.015 1.151,-1.025 2.286,-2.081 3.421,-3.137 0.032,-0.032 0.047,-0.048 0.079,-0.079 1.135,-1.072 2.254,-2.16 3.374,-3.279 1.119,-1.119 2.206,-2.239 3.278,-3.374 0.032,-0.031 0.048,-0.047 0.079,-0.078 1.056,-1.135 2.113,-2.27 3.137,-3.421 0,0 0.016,0 0.016,-0.016 0.016,0 0.016,-0.016 0.031,-0.031 0.883,-0.978 1.75,-1.971 2.601,-2.98 0.095,-0.094 0.174,-0.205 0.269,-0.315 0.804,-0.946 1.592,-1.908 2.38,-2.869 0.063,-0.079 0.142,-0.158 0.205,-0.252 0.709,-0.867 1.403,-1.75 2.096,-2.633 0.442,-0.568 0.867,-1.135 1.293,-1.702 0.709,-0.915 1.403,-1.845 2.065,-2.791 0.52,-0.709 1.041,-1.418 1.545,-2.144 0.299,-0.409 0.599,-0.851 0.883,-1.276 0.536,-0.773 1.071,-1.561 1.592,-2.349 0.126,-0.189 0.252,-0.379 0.362,-0.568 0.631,-0.93 1.23,-1.86 1.813,-2.806 0.647,-0.993 1.277,-2.018 1.876,-3.042 0.379,-0.599 0.741,-1.198 1.088,-1.813 0.378,-0.646 0.757,-1.308 1.135,-1.971 0.347,-0.599 0.693,-1.213 1.009,-1.812 0.315,-0.552 0.615,-1.104 0.898,-1.656 0.347,-0.614 0.678,-1.245 0.978,-1.86 0.362,-0.662 0.709,-1.324 1.04,-2.002 0.252,-0.457 0.473,-0.93 0.694,-1.403 0.457,-0.882 0.882,-1.765 1.292,-2.664 0.158,-0.299 0.3,-0.599 0.426,-0.898 0.378,-0.804 0.757,-1.624 1.103,-2.444 0.268,-0.583 0.521,-1.166 0.773,-1.75 0.394,-0.898 0.772,-1.781 1.135,-2.695 0.063,-0.11 0.11,-0.237 0.142,-0.363 0.504,-1.182 0.977,-2.38 1.434,-3.594 0.047,-0.094 0.079,-0.189 0.111,-0.299 0.473,-1.23 0.93,-2.46 1.355,-3.705 0.016,-0.016 0.032,-0.031 0.032,-0.063 0.015,-0.031 0.032,-0.063 0.032,-0.11 0.346,-0.946 0.661,-1.892 0.977,-2.838 0.362,-1.056 0.693,-2.112 1.025,-3.184 0.425,-1.324 0.819,-2.664 1.197,-4.02 0.19,-0.662 0.379,-1.34 0.552,-2.033 0.457,-1.656 0.883,-3.311 1.277,-4.998 0.047,-0.142 0.079,-0.283 0.095,-0.425 0.283,-1.151 0.536,-2.318 0.788,-3.5 0.205,-0.961 0.409,-1.923 0.599,-2.885 0.11,-0.536 0.205,-1.072 0.299,-1.623 0.158,-0.836 0.3,-1.687 0.442,-2.522 C -0.016,0.158 0,0.079 0,0" /></g><g
           transform="translate(993.5854,540.439)"
           id="g124"><path
             id="path126"
             style="fill:#4a4895;fill-opacity:1;fill-rule:nonzero;stroke:none"
             d="m 0,0 c 0,-1.466 -0.016,-2.932 -0.063,-4.398 -0.016,-1.135 -0.063,-2.27 -0.126,-3.405 -0.016,-0.615 -0.047,-1.23 -0.079,-1.845 -0.047,-0.756 -0.095,-1.513 -0.142,-2.269 -0.047,-0.741 -0.11,-1.467 -0.173,-2.192 -0.3,-3.657 -0.71,-7.283 -1.245,-10.861 -0.158,-1.072 -0.316,-2.144 -0.505,-3.2 0,-0.063 -0.016,-0.142 -0.032,-0.205 H -170.25 v 56.75 H -2.365 c 0.016,-0.063 0.032,-0.142 0.032,-0.205 0.189,-1.056 0.347,-2.128 0.505,-3.2 0.535,-3.578 0.945,-7.204 1.245,-10.861 0.063,-0.725 0.126,-1.451 0.173,-2.192 0.047,-0.756 0.095,-1.513 0.142,-2.27 0.032,-0.614 0.063,-1.229 0.079,-1.844 0.063,-1.135 0.11,-2.27 0.126,-3.405 C -0.016,2.932 0,1.466 0,0" /></g></g></g><g
       id="g128"><g
         id="g130"><g
           id="g136"><g
             id="g138"><path
               id="path150"
               style="fill:url(#linearGradient148);stroke:none"
               d="m 423.721,512.064 c -1.624,-9.758 -4.099,-19.247 -7.331,-28.375 v 0 C 411.693,470.4 405.387,457.852 397.71,446.313 v 0 c 0.568,-0.852 1.135,-1.687 1.719,-2.522 v 0 c -0.016,-0.016 0.015,-0.032 0.015,-0.032 v 0 c 0.568,-0.836 1.151,-1.671 1.75,-2.491 v 0 c 0.284,-0.409 0.583,-0.82 0.883,-1.213 v 0 c 0.126,-0.19 0.252,-0.379 0.394,-0.552 v 0 c 0.174,-0.236 0.347,-0.473 0.536,-0.71 v 0 c 0.032,-0.063 0.079,-0.11 0.11,-0.173 v 0 l 0.048,-0.047 c 0.693,-0.93 1.403,-1.876 2.127,-2.79 v 0 c 0.158,-0.206 0.316,-0.395 0.458,-0.584 v 0 c 0.268,-0.362 0.551,-0.709 0.836,-1.056 v 0 c 0.126,-0.158 0.252,-0.315 0.378,-0.473 v 0 c 0.567,-0.709 1.151,-1.403 1.718,-2.097 v 0 c 0.205,-0.252 0.409,-0.488 0.615,-0.724 v 0 c 0.457,-0.537 0.899,-1.073 1.371,-1.608 v 0 c 0.505,-0.6 1.025,-1.198 1.561,-1.781 v 0 c 0.142,-0.174 0.3,-0.348 0.457,-0.521 v 0 c 0.031,-0.047 0.063,-0.079 0.111,-0.11 v 0 c 0.157,-0.189 0.331,-0.378 0.504,-0.567 v 0 c 0.299,-0.332 0.614,-0.679 0.914,-1.009 v 0 c 0.505,-0.552 1.025,-1.104 1.529,-1.656 v 0 l 0.189,-0.189 c 1.072,-1.135 2.16,-2.254 3.264,-3.358 v 0 c 1.103,-1.104 2.223,-2.191 3.358,-3.263 v 0 c 0.062,-0.063 0.125,-0.126 0.188,-0.189 v 0 c 0.552,-0.505 1.104,-1.025 1.656,-1.529 v 0 c 0.331,-0.299 0.677,-0.615 1.009,-0.914 v 0 c 0.188,-0.174 0.377,-0.348 0.567,-0.505 v 0 c 0.032,-0.047 0.063,-0.078 0.11,-0.11 v 0 c 0.489,-0.442 0.978,-0.883 1.483,-1.308 v 0 c 0.425,-0.379 0.85,-0.741 1.276,-1.104 v 0 c 1.545,-1.325 3.121,-2.632 4.713,-3.894 v 0 c 0.426,-0.347 0.868,-0.693 1.293,-1.024 v 0 c 0.079,-0.063 0.173,-0.143 0.252,-0.189 v 0 c 0.694,-0.552 1.387,-1.089 2.097,-1.609 v 0 c 0.079,-0.063 0.158,-0.126 0.236,-0.172 v 0 c 0.805,-0.616 1.608,-1.215 2.428,-1.783 v 0 c 0.457,-0.346 0.93,-0.677 1.387,-1.008 v 0 c 1.277,-0.915 2.586,-1.813 3.894,-2.68 v 0 l 18.774,28.17 12.707,19.059 c -3.752,2.506 -7.346,5.233 -10.767,8.149 v 0 c -9.774,8.355 -18.113,18.349 -24.592,29.542 v 0 c -5.076,8.78 -9.017,18.302 -11.602,28.375 v 0 c -2.333,9.064 -3.579,18.57 -3.579,28.375 v 0 c 0,-9.663 -0.804,-19.153 -2.364,-28.375" /></g></g></g></g><g
       id="g152"><g
         clip-path="url(#clipPath158)"
         id="g154"><g
           transform="translate(426.0854,540.439)"
           id="g160"><path
             id="path162"
             style="fill:#ee73a1;fill-opacity:1;fill-rule:nonzero;stroke:none"
             d="m 0,0 c 0,-9.663 -0.804,-19.153 -2.365,-28.375 -1.623,-9.758 -4.098,-19.248 -7.33,-28.375 -4.697,-13.289 -11.003,-25.837 -18.68,-37.376 -7.677,11.539 -13.983,24.087 -18.68,37.376 -3.232,9.127 -5.707,18.617 -7.33,28.375 -1.561,9.222 -2.365,18.712 -2.365,28.375 0,9.663 0.804,19.153 2.365,28.375 1.623,9.758 4.098,19.248 7.33,28.375 4.697,13.289 11.003,25.837 18.68,37.376 7.677,-11.539 13.983,-24.087 18.68,-37.376 3.232,-9.127 5.707,-18.617 7.33,-28.375 C -0.804,19.153 0,9.663 0,0" /></g><g
           transform="translate(397.7104,446.3129)"
           id="g164"><path
             id="path166"
             style="fill:#ee73a1;fill-opacity:1;fill-rule:nonzero;stroke:none"
             d="m 0,0 c -0.567,-0.851 -1.135,-1.687 -1.718,-2.522 0.015,-0.016 -0.016,-0.032 -0.016,-0.032 -0.568,-0.835 -1.151,-1.671 -1.75,-2.49 -1.198,-1.671 -2.412,-3.311 -3.657,-4.919 -0.079,-0.11 -0.173,-0.221 -0.252,-0.331 -0.363,-0.457 -0.725,-0.914 -1.088,-1.371 -0.394,-0.505 -0.804,-1.009 -1.198,-1.498 -0.079,-0.11 -0.158,-0.205 -0.236,-0.299 -0.048,-0.048 -0.079,-0.079 -0.111,-0.126 -0.961,-1.183 -1.939,-2.334 -2.932,-3.484 -0.646,-0.757 -1.308,-1.514 -1.97,-2.255 l -0.048,-0.047 c 0,-0.016 -0.015,-0.016 -0.015,-0.016 -0.032,-0.031 -0.063,-0.063 -0.095,-0.094 -0.173,-0.189 -0.331,-0.379 -0.52,-0.568 l -0.284,-0.331 c -0.709,-0.788 -1.419,-1.56 -2.144,-2.333 l -0.189,-0.189 c -1.072,-1.135 -2.16,-2.254 -3.263,-3.358 -1.104,-1.103 -2.223,-2.191 -3.358,-3.263 -0.063,-0.063 -0.126,-0.126 -0.189,-0.189 -0.772,-0.725 -1.545,-1.434 -2.333,-2.144 l -0.331,-0.284 c -0.189,-0.189 -0.378,-0.346 -0.568,-0.52 l -0.094,-0.094 c 0,0 0,-0.016 -0.016,-0.016 -0.016,-0.016 -0.032,-0.032 -0.047,-0.032 -0.158,-0.142 -0.316,-0.283 -0.473,-0.41 -0.347,-0.315 -0.678,-0.614 -1.025,-0.914 -0.394,-0.362 -0.804,-0.709 -1.214,-1.056 -0.646,-0.552 -1.292,-1.103 -1.939,-1.64 -0.063,-0.063 -0.142,-0.11 -0.205,-0.173 -0.441,-0.362 -0.882,-0.725 -1.34,-1.088 -1.67,-1.371 -3.373,-2.695 -5.107,-3.988 -0.851,-0.662 -1.718,-1.292 -2.585,-1.907 -0.741,-0.536 -1.482,-1.056 -2.239,-1.592 -0.252,-0.19 -0.536,-0.379 -0.804,-0.552 -0.741,-0.52 -1.482,-1.025 -2.238,-1.514 -1.971,-1.324 -3.973,-2.601 -6.006,-3.83 -1.135,-0.694 -2.27,-1.372 -3.421,-2.034 -0.079,-0.047 -0.173,-0.094 -0.252,-0.142 -1.151,-0.662 -2.302,-1.308 -3.453,-1.923 -0.914,-0.504 -1.844,-0.993 -2.758,-1.45 -1.309,-0.709 -2.617,-1.371 -3.957,-2.002 -0.536,-0.268 -1.072,-0.536 -1.624,-0.788 l -2.033,-0.946 c -0.394,-0.189 -0.804,-0.378 -1.23,-0.552 -1.087,-0.488 -2.175,-0.977 -3.279,-1.434 -1.135,-0.473 -2.27,-0.946 -3.405,-1.403 -1.072,-0.426 -2.143,-0.836 -3.247,-1.246 -0.914,-0.346 -1.844,-0.677 -2.774,-1.008 -0.032,-0.016 -0.063,-0.032 -0.095,-0.032 -0.032,-0.016 -0.063,-0.032 -0.11,-0.032 -0.93,-0.331 -1.86,-0.646 -2.791,-0.961 -1.072,-0.363 -2.143,-0.71 -3.231,-1.041 -1.324,-0.425 -2.648,-0.819 -3.988,-1.198 -1.167,-0.331 -2.349,-0.646 -3.547,-0.961 -0.694,-0.174 -1.372,-0.347 -2.065,-0.52 -0.71,-0.19 -1.435,-0.347 -2.144,-0.521 -0.3,-0.078 -0.599,-0.142 -0.899,-0.205 -0.993,-0.236 -1.97,-0.441 -2.979,-0.646 -0.426,-0.094 -0.851,-0.189 -1.277,-0.268 -1.103,-0.221 -2.207,-0.441 -3.326,-0.63 -0.126,-0.032 -0.252,-0.048 -0.379,-0.064 -1.056,-0.204 -2.128,-0.378 -3.184,-0.535 -0.41,-0.079 -0.804,-0.142 -1.214,-0.205 -2.727,-0.41 -5.454,-0.741 -8.213,-1.025 -1.072,-0.11 -2.144,-0.205 -3.231,-0.3 -0.946,-0.078 -1.908,-0.157 -2.869,-0.205 -0.205,-0.015 -0.394,-0.031 -0.599,-0.031 -0.836,-0.063 -1.687,-0.11 -2.538,-0.142 -1.025,-0.063 -2.05,-0.095 -3.074,-0.11 -1.687,-0.063 -3.389,-0.095 -5.092,-0.095 v 56.75 c 20.666,0 40.056,5.533 56.75,15.181 6.038,3.499 11.713,7.519 16.978,12.028 9.773,8.354 18.112,18.349 24.591,29.541 5.076,8.781 9.017,18.302 11.603,28.375 2.333,9.064 3.578,18.57 3.578,28.375 0,-9.663 0.804,-19.153 2.365,-28.375 1.623,-9.758 4.098,-19.248 7.33,-28.375 C -13.983,24.087 -7.677,11.539 0,0" /></g></g></g><g
       id="g168"><g
         id="g170"><g
           id="g176"><g
             id="g178"><path
               id="path188"
               style="fill:url(#linearGradient186);stroke:none"
               d="m 255.836,653.939 c 20.666,0 40.055,-5.533 56.749,-15.181 v 0 c 6.037,-3.499 11.713,-7.519 16.978,-12.028 v 0 c 9.774,-8.354 18.112,-18.349 24.591,-29.541 v 0 c 5.076,-8.781 9.018,-18.302 11.603,-28.375 v 0 c 2.333,-9.064 3.579,-18.57 3.579,-28.375 v 0 c 0,9.663 0.803,19.153 2.364,28.375 v 0 c 1.624,9.758 4.099,19.248 7.33,28.375 v 0 c 4.698,13.289 11.003,25.837 18.68,37.376 v 0 c -0.567,0.851 -1.135,1.687 -1.718,2.522 v 0 c 0.016,0.016 -0.015,0.032 -0.015,0.032 v 0 c -0.568,0.835 -1.151,1.671 -1.751,2.49 v 0 c -1.198,1.672 -2.411,3.311 -3.657,4.919 v 0 c -0.079,0.11 -0.173,0.22 -0.252,0.331 v 0 c -0.362,0.457 -0.725,0.914 -1.088,1.372 v 0 c -0.394,0.504 -0.803,1.009 -1.198,1.497 v 0 c -0.079,0.11 -0.157,0.205 -0.236,0.3 v 0 c -0.047,0.047 -0.079,0.078 -0.11,0.126 v 0 c -0.962,1.182 -1.94,2.333 -2.932,3.484 v 0 c -0.646,0.756 -1.309,1.513 -1.971,2.253 v 0 c -0.016,0.017 -0.032,0.032 -0.047,0.048 v 0 c 0,0.015 -0.016,0.015 -0.016,0.015 v 0 l -0.095,0.096 c -0.173,0.189 -0.331,0.378 -0.52,0.567 v 0 l -0.284,0.331 c -0.709,0.788 -1.419,1.561 -2.143,2.333 v 0 c -0.063,0.063 -0.126,0.126 -0.189,0.189 v 0 c -1.072,1.135 -2.16,2.254 -3.264,3.358 v 0 c -1.103,1.103 -2.223,2.191 -3.358,3.263 v 0 c -0.063,0.063 -0.126,0.126 -0.189,0.189 v 0 c -0.772,0.725 -1.545,1.435 -2.332,2.144 v 0 l -0.332,0.283 c -0.189,0.19 -0.379,0.348 -0.568,0.521 v 0 c -0.031,0.031 -0.062,0.064 -0.094,0.095 v 0 c 0,0 0,0.015 -0.015,0.015 v 0 c -0.017,0.016 -0.032,0.032 -0.048,0.032 v 0 c -0.158,0.142 -0.315,0.283 -0.473,0.41 v 0 c -0.347,0.315 -0.678,0.615 -1.025,0.914 v 0 c -0.394,0.362 -0.803,0.71 -1.214,1.056 v 0 c -0.646,0.552 -1.292,1.104 -1.938,1.639 v 0 c -0.063,0.064 -0.143,0.111 -0.206,0.174 v 0 c -0.062,0.063 -0.141,0.111 -0.204,0.157 v 0 c -0.379,0.316 -0.741,0.631 -1.136,0.931 v 0 c -1.67,1.372 -3.373,2.695 -5.107,3.988 v 0 c -0.851,0.662 -1.718,1.292 -2.585,1.907 v 0 c -0.741,0.536 -1.482,1.057 -2.238,1.593 v 0 c -0.252,0.189 -0.537,0.378 -0.805,0.552 v 0 c -0.741,0.52 -1.481,1.024 -2.238,1.513 v 0 c -1.97,1.323 -3.973,2.601 -6.006,3.83 v 0 c -1.135,0.694 -2.27,1.372 -3.421,2.034 v 0 c -0.078,0.047 -0.173,0.094 -0.252,0.141 v 0 c -1.151,0.663 -2.301,1.309 -3.452,1.924 v 0 c -0.915,0.505 -1.844,0.993 -2.759,1.45 v 0 c -1.308,0.71 -2.617,1.372 -3.957,2.002 v 0 c -0.535,0.268 -1.072,0.536 -1.624,0.788 v 0 c -0.677,0.315 -1.355,0.631 -2.033,0.946 v 0 c -0.394,0.189 -0.803,0.378 -1.229,0.552 v 0 c -1.088,0.489 -2.176,0.977 -3.28,1.435 v 0 c -1.135,0.472 -2.269,0.945 -3.404,1.403 v 0 c -1.072,0.425 -2.144,0.835 -3.248,1.244 v 0 c -0.914,0.348 -1.844,0.679 -2.774,1.009 v 0 c -0.032,0.017 -0.063,0.032 -0.095,0.032 v 0 c -0.031,0.016 -0.063,0.031 -0.11,0.031 v 0 c -0.93,0.332 -1.86,0.647 -2.79,0.962 v 0 c -1.072,0.363 -2.144,0.71 -3.231,1.041 v 0 c -1.325,0.425 -2.649,0.82 -3.989,1.198 v 0 c -1.167,0.331 -2.349,0.646 -3.547,0.962 v 0 c -0.693,0.173 -1.372,0.346 -2.065,0.52 v 0 c -0.71,0.189 -1.434,0.347 -2.143,0.52 v 0 c -0.3,0.078 -0.6,0.142 -0.9,0.204 v 0 c -0.992,0.221 -1.986,0.442 -2.979,0.647 v 0 c -0.425,0.095 -0.851,0.19 -1.277,0.268 v 0 c -1.103,0.22 -2.206,0.442 -3.326,0.631 v 0 c -0.126,0.031 -0.252,0.047 -0.378,0.063 v 0 c -1.057,0.205 -2.129,0.378 -3.184,0.535 v 0 c -0.411,0.079 -0.804,0.143 -1.214,0.205 v 0 c -2.727,0.41 -5.454,0.741 -8.213,1.026 v 0 c -1.073,0.109 -2.145,0.204 -3.232,0.298 v 0 c -0.946,0.08 -1.907,0.159 -2.869,0.206 v 0 c -0.205,0.016 -0.394,0.031 -0.599,0.031 v 0 c -0.836,0.063 -1.687,0.111 -2.538,0.142 v 0 c -1.025,0.063 -2.05,0.095 -3.074,0.11 v 0 c -1.687,0.063 -3.389,0.095 -5.091,0.095 v 0 z" /></g></g></g></g><g
       id="g190"><g
         clip-path="url(#clipPath196)"
         id="g192"><g
           transform="translate(255.8354,710.689)"
           id="g198"><path
             id="path200"
             style="fill:#ee73a1;fill-opacity:1;fill-rule:nonzero;stroke:none"
             d="m 0,0 v -56.75 c -20.666,0 -40.056,-5.533 -56.75,-15.181 -17.23,-9.978 -31.591,-24.339 -41.569,-41.569 -5.076,-8.781 -9.017,-18.302 -11.603,-28.375 -2.333,-9.064 -3.578,-18.57 -3.578,-28.375 h -56.75 c 0,1.466 0.016,2.932 0.063,4.398 0.016,1.135 0.063,2.27 0.126,3.405 0.016,0.615 0.047,1.23 0.079,1.844 0.047,0.757 0.095,1.514 0.142,2.27 0.047,0.741 0.11,1.467 0.173,2.192 0.3,3.657 0.71,7.283 1.246,10.861 0.157,1.072 0.315,2.144 0.504,3.2 0,0.063 0.016,0.142 0.032,0.205 0,0.079 0.015,0.142 0.031,0.221 0.158,0.914 0.315,1.813 0.489,2.711 0.079,0.505 0.173,1.025 0.284,1.513 0.141,0.757 0.299,1.514 0.457,2.255 0.236,1.135 0.473,2.254 0.741,3.373 0.299,1.34 0.63,2.68 0.961,4.004 0.363,1.403 0.741,2.775 1.135,4.146 0.379,1.356 0.773,2.696 1.198,4.02 0.331,1.072 0.662,2.128 1.025,3.184 0.315,0.946 0.63,1.892 0.977,2.838 0,0.047 0.016,0.079 0.032,0.11 0,0.032 0.016,0.047 0.031,0.063 0.426,1.245 0.883,2.475 1.356,3.705 0.032,0.11 0.063,0.205 0.11,0.299 0.458,1.214 0.93,2.412 1.435,3.594 0.031,0.126 0.079,0.253 0.142,0.363 0.362,0.914 0.741,1.797 1.135,2.695 0.252,0.584 0.504,1.167 0.772,1.75 0.347,0.82 0.725,1.64 1.104,2.444 0.126,0.299 0.268,0.599 0.425,0.898 0.41,0.899 0.836,1.782 1.293,2.664 0.221,0.473 0.441,0.946 0.693,1.403 0.332,0.678 0.678,1.34 1.041,2.002 0.299,0.615 0.63,1.246 0.977,1.86 0.284,0.552 0.584,1.104 0.899,1.656 0.315,0.599 0.662,1.213 1.009,1.812 0.378,0.663 0.756,1.325 1.135,1.971 0.346,0.615 0.709,1.214 1.087,1.813 0.599,1.024 1.23,2.049 1.876,3.042 0.584,0.946 1.183,1.876 1.813,2.806 0.111,0.189 0.237,0.379 0.363,0.568 0.52,0.788 1.056,1.576 1.592,2.349 0.284,0.425 0.583,0.867 0.883,1.276 0.504,0.726 1.024,1.435 1.545,2.144 0.662,0.946 1.355,1.876 2.065,2.791 0.425,0.567 0.851,1.134 1.292,1.702 0.694,0.883 1.387,1.766 2.097,2.633 0.063,0.094 0.142,0.173 0.205,0.252 0.788,0.961 1.576,1.923 2.38,2.869 0.095,0.11 0.174,0.221 0.268,0.315 0.851,1.009 1.718,2.002 2.601,2.98 0.016,0.015 0.016,0.031 0.032,0.031 0,0.016 0.015,0.016 0.015,0.016 0.994,1.119 2.018,2.238 3.043,3.326 0.063,0.063 0.126,0.126 0.189,0.189 1.072,1.135 2.16,2.254 3.263,3.358 1.104,1.103 2.223,2.191 3.358,3.263 0.063,0.063 0.126,0.126 0.189,0.189 1.088,1.025 2.207,2.049 3.326,3.043 0,0 0,0.015 0.016,0.015 0,0.016 0.016,0.016 0.032,0.032 0.977,0.883 1.97,1.75 2.979,2.601 0.094,0.095 0.205,0.173 0.315,0.268 0.946,0.804 1.908,1.592 2.869,2.38 0.079,0.063 0.158,0.142 0.252,0.205 0.867,0.709 1.75,1.403 2.633,2.097 0.567,0.441 1.135,0.867 1.703,1.292 0.914,0.71 1.844,1.403 2.79,2.065 0.709,0.521 1.418,1.041 2.144,1.545 0.409,0.3 0.851,0.599 1.277,0.883 0.772,0.536 1.56,1.072 2.348,1.592 0.189,0.126 0.379,0.253 0.568,0.363 0.93,0.63 1.86,1.229 2.806,1.813 0.993,0.646 2.018,1.277 3.042,1.876 0.599,0.378 1.198,0.74 1.813,1.087 0.646,0.379 1.308,0.757 1.971,1.135 0.599,0.347 1.213,0.694 1.812,1.009 0.552,0.315 1.104,0.615 1.656,0.899 0.614,0.347 1.245,0.678 1.86,0.977 0.662,0.363 1.324,0.709 2.002,1.041 0.457,0.252 0.93,0.472 1.403,0.693 0.883,0.457 1.765,0.883 2.664,1.293 0.299,0.157 0.599,0.299 0.898,0.425 0.804,0.379 1.624,0.757 2.444,1.104 0.583,0.268 1.166,0.52 1.75,0.772 0.898,0.394 1.781,0.773 2.695,1.135 0.11,0.063 0.237,0.111 0.363,0.142 1.182,0.505 2.38,0.977 3.594,1.435 0.094,0.047 0.189,0.078 0.299,0.11 1.23,0.473 2.46,0.93 3.705,1.356 0.016,0.015 0.031,0.031 0.063,0.031 0.032,0.016 0.063,0.032 0.11,0.032 0.93,0.331 1.86,0.646 2.791,0.961 1.072,0.363 2.143,0.71 3.231,1.041 1.324,0.425 2.648,0.82 3.988,1.198 1.167,0.331 2.349,0.646 3.547,0.961 0.694,0.174 1.387,0.363 2.081,0.521 0.71,0.189 1.419,0.362 2.128,0.52 0.3,0.079 0.599,0.142 0.899,0.205 0.993,0.22 1.986,0.441 2.979,0.646 0.426,0.095 0.851,0.189 1.277,0.268 1.104,0.221 2.207,0.441 3.326,0.631 0.126,0.031 0.252,0.047 0.379,0.063 1.056,0.205 2.128,0.378 3.184,0.536 0.41,0.078 0.804,0.142 1.214,0.205 2.727,0.409 5.454,0.74 8.213,1.024 1.072,0.111 2.144,0.205 3.231,0.3 0.946,0.079 1.908,0.157 2.869,0.205 0.205,0.015 0.394,0.031 0.599,0.031 0.836,0.063 1.687,0.111 2.538,0.142 1.025,0.063 2.05,0.095 3.074,0.11 C -3.405,-0.031 -1.703,0 0,0" /></g></g></g></g></svg>